<?xml version="1.0" standalone="no"?>
<svg xmlns="http://www.w3.org/2000/svg" xmlns:xlink="http://www.w3.org/1999/xlink/" width="21in" height="21in" viewBox="0 0 100 100" version="1.2">

  <desc>Picture by J. Wendt</desc>
  <!-- START Generator PARAMETERS in Json -->
  <desc>{"params":{"opacity":["rc",[[0.6,0.4]]],"fill":["rc",[["#ABBDC8","#D9E1DD","#68443C","#B67B66","#D8B29A"]]],"structure":"RANDOM","colorid":651,"y":["ri",[-20,120]],"width":["rc",[[50,10]]],"figures":["rc",[["rect","polygon","circle","line"]]],"x":["ri",[-20,120]],"stroke-width":["rc",[[6,4]]],"transform":["rc",[[0,180]]],"stroke-linecap":["rc",[["round"]]],"height":["rc",[[40,20]]],"palette":["#ABBDC8","#D9E1DD","#68443C","#B67B66","#D8B29A"],"nr_of_figures":32,"stroke-opacity":["rc",[[0.8,0.6]]],"stroke":["rc",[["#ABBDC8","#D9E1DD","#68443C","#B67B66","#D8B29A"]]]}}</desc>
  <!-- END Generator PARAMETERS in Json -->
  
  <!-- Show outline of canvas using 'rect' element -->
  <rect id="bg-00" x="0" y="0" width="100" height="100" fill="grey" opacity=".4" stroke="white" stroke-opacity=".3" stroke-width="0.1"/>

<circle fill="#ABBDC8" opacity="0.4" stroke="#68443C" stroke-linecap="round" stroke-opacity="0.6" stroke-width="4" r="20.00" cx="96.00" cy="85.00"/>
<rect fill="#B67B66" height="40" opacity="0.4" stroke="#ABBDC8" stroke-linecap="round" stroke-opacity="0.8" stroke-width="4" transform="rotate(0, 112.0, 113.0)" width="50" x="87" y="93"/>
<rect fill="#ABBDC8" height="20" opacity="0.6" stroke="#B67B66" stroke-linecap="round" stroke-opacity="0.8" stroke-width="4" transform="rotate(0, 76.0, 92.0)" width="10" x="71" y="82"/>
<line fill="#D9E1DD" opacity="0.4" stroke="#D8B29A" stroke-linecap="round" stroke-opacity="0.6" stroke-width="6" x1="9" x2="97" y1="10" y2="10"/>
<polygon fill="#D8B29A" opacity="0.6" stroke="#B67B66" stroke-linecap="round" stroke-opacity="0.8" stroke-width="4" transform="rotate(0, 78.0, 94.0)" points="53.00,84.00 73.00,84.00 63.00,101.32"/>
<circle fill="#D8B29A" opacity="0.4" stroke="#D8B29A" stroke-linecap="round" stroke-opacity="0.6" stroke-width="4" r="25.00" cx="123.00" cy="132.00"/>
<line fill="#B67B66" opacity="0.6" stroke="#ABBDC8" stroke-linecap="round" stroke-opacity="0.6" stroke-width="4" x1="9" x2="95" y1="22" y2="22"/>
<line fill="#ABBDC8" opacity="0.4" stroke="#D9E1DD" stroke-linecap="round" stroke-opacity="0.8" stroke-width="6" x1="22" x2="96" y1="34" y2="34"/>
<line fill="#D9E1DD" opacity="0.6" stroke="#ABBDC8" stroke-linecap="round" stroke-opacity="0.6" stroke-width="4" x1="26" x2="97" y1="46" y2="46"/>
<rect fill="#B67B66" height="20" opacity="0.4" stroke="#D9E1DD" stroke-linecap="round" stroke-opacity="0.8" stroke-width="4" transform="rotate(180, 79.0, 15.0)" width="10" x="74" y="5"/>
<circle fill="#D9E1DD" opacity="0.4" stroke="#B67B66" stroke-linecap="round" stroke-opacity="0.6" stroke-width="4" r="20.00" cx="39.00" cy="1.00"/>
<circle fill="#68443C" opacity="0.6" stroke="#D8B29A" stroke-linecap="round" stroke-opacity="0.8" stroke-width="6" r="25.00" cx="33.00" cy="96.00"/>
<rect fill="#68443C" height="40" opacity="0.6" stroke="#D9E1DD" stroke-linecap="round" stroke-opacity="0.6" stroke-width="4" transform="rotate(180, 17.0, 34.0)" width="50" x="-8" y="14"/>
<rect fill="#68443C" height="20" opacity="0.6" stroke="#D9E1DD" stroke-linecap="round" stroke-opacity="0.6" stroke-width="4" transform="rotate(180, 98.0, 49.0)" width="10" x="93" y="39"/>
<circle fill="#D9E1DD" opacity="0.6" stroke="#D9E1DD" stroke-linecap="round" stroke-opacity="0.8" stroke-width="6" r="20.00" cx="100.00" cy="52.00"/>
<circle fill="#ABBDC8" opacity="0.4" stroke="#ABBDC8" stroke-linecap="round" stroke-opacity="0.8" stroke-width="4" r="25.00" cx="63.00" cy="136.00"/>
<rect fill="#68443C" height="40" opacity="0.4" stroke="#ABBDC8" stroke-linecap="round" stroke-opacity="0.8" stroke-width="4" transform="rotate(0, 46.0, 10.0)" width="10" x="41" y="-10"/>
<polygon fill="#D8B29A" opacity="0.6" stroke="#B67B66" stroke-linecap="round" stroke-opacity="0.8" stroke-width="4" transform="rotate(0, 78.0, 89.0)" points="53.00,79.00 73.00,79.00 63.00,96.32"/>
<circle fill="#D9E1DD" opacity="0.6" stroke="#68443C" stroke-linecap="round" stroke-opacity="0.8" stroke-width="4" r="20.00" cx="78.00" cy="73.00"/>
<line fill="#D8B29A" opacity="0.4" stroke="#B67B66" stroke-linecap="round" stroke-opacity="0.6" stroke-width="4" x1="13" x2="97" y1="58" y2="58"/>
<rect fill="#68443C" height="20" opacity="0.4" stroke="#D9E1DD" stroke-linecap="round" stroke-opacity="0.6" stroke-width="6" transform="rotate(0, 124.0, 108.0)" width="10" x="119" y="98"/>
<rect fill="#ABBDC8" height="20" opacity="0.6" stroke="#ABBDC8" stroke-linecap="round" stroke-opacity="0.6" stroke-width="4" transform="rotate(180, 102.0, 12.0)" width="10" x="97" y="2"/>
<polygon fill="#ABBDC8" opacity="0.4" stroke="#B67B66" stroke-linecap="round" stroke-opacity="0.6" stroke-width="6" transform="rotate(0, 52.0, 108.0)" points="47.00,88.00 87.00,88.00 67.00,122.64"/>
<line fill="#68443C" opacity="0.6" stroke="#ABBDC8" stroke-linecap="round" stroke-opacity="0.8" stroke-width="4" x1="16" x2="99" y1="70" y2="70"/>
<line fill="#ABBDC8" opacity="0.6" stroke="#D8B29A" stroke-linecap="round" stroke-opacity="0.6" stroke-width="6" x1="45" x2="98" y1="82" y2="82"/>
<line fill="#D8B29A" opacity="0.4" stroke="#ABBDC8" stroke-linecap="round" stroke-opacity="0.6" stroke-width="4" x1="12" x2="97" y1="94" y2="94"/>
<circle fill="#B67B66" opacity="0.4" stroke="#D8B29A" stroke-linecap="round" stroke-opacity="0.8" stroke-width="6" r="20.00" cx="136.00" cy="10.00"/>
<polygon fill="#D8B29A" opacity="0.4" stroke="#D8B29A" stroke-linecap="round" stroke-opacity="0.6" stroke-width="4" transform="rotate(180, 92.0, 7.0)" points="87.00,-3.00 107.00,-3.00 97.00,14.32"/>
<circle fill="#ABBDC8" opacity="0.6" stroke="#D9E1DD" stroke-linecap="round" stroke-opacity="0.8" stroke-width="6" r="25.00" cx="138.00" cy="14.00"/>
<line fill="#D8B29A" opacity="0.4" stroke="#ABBDC8" stroke-linecap="round" stroke-opacity="0.6" stroke-width="6" x1="21" x2="97" y1="10" y2="10"/>
<polygon fill="#ABBDC8" opacity="0.4" stroke="#68443C" stroke-linecap="round" stroke-opacity="0.6" stroke-width="4" transform="rotate(0, 63.0, 46.0)" points="58.00,26.00 98.00,26.00 78.00,60.64"/>
<circle fill="#D9E1DD" opacity="0.4" stroke="#68443C" stroke-linecap="round" stroke-opacity="0.6" stroke-width="6" r="25.00" cx="78.00" cy="44.00"/>
</svg>