<?xml version="1.0" standalone="no"?>
<svg xmlns="http://www.w3.org/2000/svg" xmlns:xlink="http://www.w3.org/1999/xlink/" width="21in" height="21in" viewBox="0 0 100 100" version="1.2">

  <desc>Picture by J. Wendt</desc>
  <!-- Show outline of canvas using 'rect' element -->
  <rect id="bg-00" x="0" y="0" width="100" height="100" fill="#c3bdc6" opacity="1." stroke="goldenrod" stroke-opacity=".7" stroke-width=".5"/>

<polygon fill="#DBA3AF" opacity="0.2" stroke="#45423E" stroke-linecap="round" stroke-opacity="0.8" stroke-width="6" transform="rotate(90, 100.0, 59.0)" points="95.00,49.00 115.00,49.00 105.00,66.32"/>
<polygon fill="#45423E" opacity="0.4" stroke="#DBA3AF" stroke-linecap="round" stroke-opacity="0.8" stroke-width="4" transform="rotate(90, 104.0, 81.0)" points="79.00,71.00 99.00,71.00 89.00,88.32"/>
<rect fill="#DBA3AF" height="40" opacity="0.2" stroke="#DBA3AF" stroke-linecap="round" stroke-opacity="0.8" stroke-width="4" transform="rotate(180, 47.0, 4.0)" width="50" x="22" y="-16"/>
<line fill="#DBA3AF" opacity="0.2" stroke="#E9E3D6" stroke-linecap="round" stroke-opacity="0.6" stroke-width="4" x1="16" x2="99" y1="10" y2="10"/>
<rect fill="#AC443A" height="40" opacity="0.2" stroke="#DBA3AF" stroke-linecap="round" stroke-opacity="0.8" stroke-width="6" transform="rotate(180, 39.0, 15.0)" width="10" x="34" y="-5"/>
<rect fill="#AC443A" height="40" opacity="0.2" stroke="#45423E" stroke-linecap="round" stroke-opacity="0.6" stroke-width="6" transform="rotate(180, 14.0, 60.0)" width="10" x="9" y="40"/>
<line fill="#45423E" opacity="0.4" stroke="#E9E3D6" stroke-linecap="round" stroke-opacity="0.8" stroke-width="6" x1="39" x2="29" y1="22" y2="22"/>
<circle fill="#DBA3AF" opacity="0.2" stroke="#E9E3D6" stroke-linecap="round" stroke-opacity="0.6" stroke-width="6" r="10.00" cx="-4.00" cy="27.00"/>
<rect fill="#DBA3AF" height="20" opacity="0.4" stroke="#DBA3AF" stroke-linecap="round" stroke-opacity="0.8" stroke-width="4" transform="rotate(90, 137.0, 111.0)" width="50" x="112" y="101"/>
<line fill="#DBA3AF" opacity="0.4" stroke="#45423E" stroke-linecap="round" stroke-opacity="0.6" stroke-width="4" x1="17" x2="34" y1="34" y2="34"/>
<rect fill="#DBA3AF" height="40" opacity="0.4" stroke="#DBA3AF" stroke-linecap="round" stroke-opacity="0.6" stroke-width="4" transform="rotate(180, 24.0, 25.0)" width="50" x="-1" y="5"/>
<circle fill="#DBA3AF" opacity="0.4" stroke="#45423E" stroke-linecap="round" stroke-opacity="0.8" stroke-width="6" r="10.00" cx="1.00" cy="92.00"/>
<polygon fill="#AC443A" opacity="0.4" stroke="#AC443A" stroke-linecap="round" stroke-opacity="0.8" stroke-width="6" transform="rotate(90, -11.0, 64.0)" points="-16.00,44.00 24.00,44.00 4.00,78.64"/>
<circle fill="#45423E" opacity="0.4" stroke="#DBA3AF" stroke-linecap="round" stroke-opacity="0.8" stroke-width="4" r="25.00" cx="143.00" cy="143.00"/>
<polygon fill="#45423E" opacity="0.4" stroke="#45423E" stroke-linecap="round" stroke-opacity="0.6" stroke-width="4" transform="rotate(90, 34.0, 49.0)" points="29.00,29.00 69.00,29.00 49.00,63.64"/>
<line fill="#45423E" opacity="0.2" stroke="#DBA3AF" stroke-linecap="round" stroke-opacity="0.6" stroke-width="4" x1="20" x2="10" y1="46" y2="46"/>
<circle fill="#DBA3AF" opacity="0.2" stroke="#45423E" stroke-linecap="round" stroke-opacity="0.6" stroke-width="6" r="20.00" cx="83.00" cy="13.00"/>
<polygon fill="#45423E" opacity="0.2" stroke="#45423E" stroke-linecap="round" stroke-opacity="0.6" stroke-width="4" transform="rotate(180, 124.0, 51.0)" points="119.00,31.00 159.00,31.00 139.00,65.64"/>
<polygon fill="#45423E" opacity="0.4" stroke="#DBA3AF" stroke-linecap="round" stroke-opacity="0.8" stroke-width="6" transform="rotate(90, 85.0, 108.0)" points="80.00,88.00 120.00,88.00 100.00,122.64"/>
<line fill="#AC443A" opacity="0.4" stroke="#DBA3AF" stroke-linecap="round" stroke-opacity="0.8" stroke-width="4" x1="70" x2="92" y1="58" y2="58"/>
<rect fill="#45423E" height="20" opacity="0.2" stroke="#45423E" stroke-linecap="round" stroke-opacity="0.8" stroke-width="6" transform="rotate(180, 31.0, 61.0)" width="10" x="26" y="51"/>
<circle fill="#DBA3AF" opacity="0.2" stroke="#45423E" stroke-linecap="round" stroke-opacity="0.8" stroke-width="4" r="20.00" cx="128.00" cy="58.00"/>
<line fill="#AC443A" opacity="0.4" stroke="#DBA3AF" stroke-linecap="round" stroke-opacity="0.8" stroke-width="4" x1="18" x2="38" y1="70" y2="70"/>
<polygon fill="#DBA3AF" opacity="0.2" stroke="#AC443A" stroke-linecap="round" stroke-opacity="0.8" stroke-width="4" transform="rotate(180, -10.0, 117.0)" points="-15.00,107.00 5.00,107.00 -5.00,124.32"/>
<polygon fill="#45423E" opacity="0.4" stroke="#E9E3D6" stroke-linecap="round" stroke-opacity="0.6" stroke-width="6" transform="rotate(180, 65.0, 108.0)" points="40.00,98.00 60.00,98.00 50.00,115.32"/>
<polygon fill="#45423E" opacity="0.4" stroke="#DBA3AF" stroke-linecap="round" stroke-opacity="0.8" stroke-width="4" transform="rotate(90, -9.0, 79.0)" points="-14.00,69.00 6.00,69.00 -4.00,86.32"/>
<polygon fill="#DBA3AF" opacity="0.2" stroke="#E9E3D6" stroke-linecap="round" stroke-opacity="0.8" stroke-width="4" transform="rotate(90, 113.0, 122.0)" points="108.00,102.00 148.00,102.00 128.00,136.64"/>
<rect fill="#E9E3D6" height="20" opacity="0.4" stroke="#E9E3D6" stroke-linecap="round" stroke-opacity="0.8" stroke-width="6" transform="rotate(90, 117.0, 12.0)" width="10" x="112" y="2"/>
<polygon fill="#DBA3AF" opacity="0.2" stroke="#45423E" stroke-linecap="round" stroke-opacity="0.8" stroke-width="4" transform="rotate(180, 96.0, 20.0)" points="71.00,0.00 111.00,0.00 91.00,34.64"/>
<polygon fill="#E9E3D6" opacity="0.4" stroke="#E9E3D6" stroke-linecap="round" stroke-opacity="0.8" stroke-width="4" transform="rotate(180, 94.0, 48.0)" points="89.00,38.00 109.00,38.00 99.00,55.32"/>
<line fill="#DBA3AF" opacity="0.2" stroke="#DBA3AF" stroke-linecap="round" stroke-opacity="0.6" stroke-width="6" x1="60" x2="45" y1="82" y2="82"/>
<circle fill="#DBA3AF" opacity="0.2" stroke="#45423E" stroke-linecap="round" stroke-opacity="0.6" stroke-width="4" r="20.00" cx="31.00" cy="137.00"/>
<polygon fill="#45423E" opacity="0.4" stroke="#45423E" stroke-linecap="round" stroke-opacity="0.6" stroke-width="6" transform="rotate(180, 21.0, 100.0)" points="16.00,80.00 56.00,80.00 36.00,114.64"/>
<rect fill="#45423E" height="40" opacity="0.2" stroke="#E9E3D6" stroke-linecap="round" stroke-opacity="0.6" stroke-width="4" transform="rotate(180, 76.0, 32.0)" width="50" x="51" y="12"/>
<line fill="#DBA3AF" opacity="0.4" stroke="#45423E" stroke-linecap="round" stroke-opacity="0.6" stroke-width="6" x1="86" x2="95" y1="94" y2="94"/>
<circle fill="#AC443A" opacity="0.2" stroke="#45423E" stroke-linecap="round" stroke-opacity="0.8" stroke-width="4" r="25.00" cx="89.00" cy="142.00"/>
<circle fill="#DBA3AF" opacity="0.4" stroke="#DBA3AF" stroke-linecap="round" stroke-opacity="0.8" stroke-width="4" r="25.00" cx="35.00" cy="11.00"/>
<line fill="#AC443A" opacity="0.4" stroke="#E9E3D6" stroke-linecap="round" stroke-opacity="0.6" stroke-width="6" x1="13" x2="44" y1="10" y2="10"/>
<circle fill="#DBA3AF" opacity="0.4" stroke="#AC443A" stroke-linecap="round" stroke-opacity="0.8" stroke-width="4" r="20.00" cx="136.00" cy="27.00"/>
<line fill="#E9E3D6" opacity="0.4" stroke="#AC443A" stroke-linecap="round" stroke-opacity="0.8" stroke-width="4" x1="30" x2="99" y1="22" y2="22"/>
<polygon fill="#E9E3D6" opacity="0.2" stroke="#45423E" stroke-linecap="round" stroke-opacity="0.6" stroke-width="4" transform="rotate(90, 112.0, 45.0)" points="87.00,35.00 107.00,35.00 97.00,52.32"/>
<circle fill="#DBA3AF" opacity="0.2" stroke="#AC443A" stroke-linecap="round" stroke-opacity="0.6" stroke-width="4" r="10.00" cx="-4.00" cy="56.00"/>
<line fill="#AC443A" opacity="0.4" stroke="#AC443A" stroke-linecap="round" stroke-opacity="0.8" stroke-width="6" x1="38" x2="54" y1="34" y2="34"/>
<line fill="#DBA3AF" opacity="0.4" stroke="#E9E3D6" stroke-linecap="round" stroke-opacity="0.8" stroke-width="4" x1="29" x2="12" y1="46" y2="46"/>
<rect fill="#45423E" height="20" opacity="0.2" stroke="#45423E" stroke-linecap="round" stroke-opacity="0.8" stroke-width="6" transform="rotate(180, 58.0, 67.0)" width="10" x="53" y="57"/>
<polygon fill="#DBA3AF" opacity="0.2" stroke="#E9E3D6" stroke-linecap="round" stroke-opacity="0.6" stroke-width="6" transform="rotate(180, 86.0, 9.0)" points="61.00,-1.00 81.00,-1.00 71.00,16.32"/>
<line fill="#AC443A" opacity="0.4" stroke="#DBA3AF" stroke-linecap="round" stroke-opacity="0.8" stroke-width="4" x1="70" x2="44" y1="58" y2="58"/>
<rect fill="#DBA3AF" height="20" opacity="0.4" stroke="#E9E3D6" stroke-linecap="round" stroke-opacity="0.6" stroke-width="4" transform="rotate(90, 128.0, 25.0)" width="50" x="103" y="15"/>
<line fill="#45423E" opacity="0.2" stroke="#45423E" stroke-linecap="round" stroke-opacity="0.8" stroke-width="6" x1="86" x2="97" y1="70" y2="70"/>
<polygon fill="#E9E3D6" opacity="0.4" stroke="#AC443A" stroke-linecap="round" stroke-opacity="0.6" stroke-width="6" transform="rotate(180, -1.0, 131.0)" points="-6.00,111.00 34.00,111.00 14.00,145.64"/>
<circle fill="#45423E" opacity="0.2" stroke="#E9E3D6" stroke-linecap="round" stroke-opacity="0.6" stroke-width="4" r="25.00" cx="50.00" cy="101.00"/>
<polygon fill="#DBA3AF" opacity="0.2" stroke="#45423E" stroke-linecap="round" stroke-opacity="0.8" stroke-width="4" transform="rotate(90, 129.0, 85.0)" points="104.00,65.00 144.00,65.00 124.00,99.64"/>
<line fill="#AC443A" opacity="0.2" stroke="#45423E" stroke-linecap="round" stroke-opacity="0.6" stroke-width="6" x1="70" x2="61" y1="82" y2="82"/>
<polygon fill="#45423E" opacity="0.2" stroke="#E9E3D6" stroke-linecap="round" stroke-opacity="0.6" stroke-width="4" transform="rotate(180, 65.0, 99.0)" points="40.00,79.00 80.00,79.00 60.00,113.64"/>
<polygon fill="#E9E3D6" opacity="0.2" stroke="#E9E3D6" stroke-linecap="round" stroke-opacity="0.8" stroke-width="4" transform="rotate(180, 116.0, 11.0)" points="91.00,-9.00 131.00,-9.00 111.00,25.64"/>
<circle fill="#DBA3AF" opacity="0.4" stroke="#AC443A" stroke-linecap="round" stroke-opacity="0.8" stroke-width="4" r="25.00" cx="73.00" cy="82.00"/>
<line fill="#45423E" opacity="0.2" stroke="#E9E3D6" stroke-linecap="round" stroke-opacity="0.6" stroke-width="4" x1="13" x2="53" y1="94" y2="94"/>
<circle fill="#AC443A" opacity="0.4" stroke="#DBA3AF" stroke-linecap="round" stroke-opacity="0.8" stroke-width="6" r="20.00" cx="30.00" cy="109.00"/>
<polygon fill="#AC443A" opacity="0.4" stroke="#AC443A" stroke-linecap="round" stroke-opacity="0.8" stroke-width="4" transform="rotate(90, 116.0, 18.0)" points="91.00,8.00 111.00,8.00 101.00,25.32"/>
<polygon fill="#AC443A" opacity="0.4" stroke="#45423E" stroke-linecap="round" stroke-opacity="0.6" stroke-width="4" transform="rotate(180, -14.0, 59.0)" points="-19.00,39.00 21.00,39.00 1.00,73.64"/>
<line fill="#E9E3D6" opacity="0.2" stroke="#45423E" stroke-linecap="round" stroke-opacity="0.8" stroke-width="6" x1="57" x2="5" y1="10" y2="10"/>
<circle fill="#45423E" opacity="0.2" stroke="#E9E3D6" stroke-linecap="round" stroke-opacity="0.8" stroke-width="4" r="25.00" cx="111.00" cy="93.00"/>
<rect fill="#DBA3AF" height="20" opacity="0.2" stroke="#DBA3AF" stroke-linecap="round" stroke-opacity="0.6" stroke-width="6" transform="rotate(90, 73.0, 82.0)" width="50" x="48" y="72"/>
<line fill="#45423E" opacity="0.2" stroke="#DBA3AF" stroke-linecap="round" stroke-opacity="0.8" stroke-width="4" x1="29" x2="97" y1="22" y2="22"/>
<line fill="#E9E3D6" opacity="0.2" stroke="#45423E" stroke-linecap="round" stroke-opacity="0.8" stroke-width="6" x1="17" x2="44" y1="34" y2="34"/>
<circle fill="#E9E3D6" opacity="0.4" stroke="#DBA3AF" stroke-linecap="round" stroke-opacity="0.8" stroke-width="4" r="25.00" cx="43.00" cy="34.00"/>
<circle fill="#45423E" opacity="0.4" stroke="#AC443A" stroke-linecap="round" stroke-opacity="0.8" stroke-width="6" r="20.00" cx="93.00" cy="86.00"/>
<rect fill="#E9E3D6" height="40" opacity="0.4" stroke="#AC443A" stroke-linecap="round" stroke-opacity="0.8" stroke-width="4" transform="rotate(180, 50.0, 14.0)" width="50" x="25" y="-6"/>
<circle fill="#E9E3D6" opacity="0.4" stroke="#DBA3AF" stroke-linecap="round" stroke-opacity="0.6" stroke-width="4" r="20.00" cx="131.00" cy="86.00"/>
<line fill="#E9E3D6" opacity="0.2" stroke="#AC443A" stroke-linecap="round" stroke-opacity="0.6" stroke-width="6" x1="13" x2="10" y1="46" y2="46"/>
<rect fill="#45423E" height="20" opacity="0.2" stroke="#E9E3D6" stroke-linecap="round" stroke-opacity="0.8" stroke-width="6" transform="rotate(180, 48.0, 109.0)" width="50" x="23" y="99"/>
<polygon fill="#DBA3AF" opacity="0.2" stroke="#45423E" stroke-linecap="round" stroke-opacity="0.6" stroke-width="4" transform="rotate(180, 115.0, 103.0)" points="90.00,93.00 110.00,93.00 100.00,110.32"/>
<polygon fill="#45423E" opacity="0.2" stroke="#AC443A" stroke-linecap="round" stroke-opacity="0.8" stroke-width="6" transform="rotate(90, 133.0, 5.0)" points="108.00,-15.00 148.00,-15.00 128.00,19.64"/>
<circle fill="#DBA3AF" opacity="0.2" stroke="#DBA3AF" stroke-linecap="round" stroke-opacity="0.6" stroke-width="4" r="25.00" cx="67.00" cy="41.00"/>
<polygon fill="#45423E" opacity="0.2" stroke="#DBA3AF" stroke-linecap="round" stroke-opacity="0.6" stroke-width="6" transform="rotate(180, -9.0, 105.0)" points="-14.00,85.00 26.00,85.00 6.00,119.64"/>
<circle fill="#45423E" opacity="0.4" stroke="#E9E3D6" stroke-linecap="round" stroke-opacity="0.8" stroke-width="4" r="25.00" cx="47.00" cy="96.00"/>
<line fill="#AC443A" opacity="0.4" stroke="#E9E3D6" stroke-linecap="round" stroke-opacity="0.6" stroke-width="4" x1="69" x2="10" y1="58" y2="58"/>
<rect fill="#DBA3AF" height="40" opacity="0.4" stroke="#45423E" stroke-linecap="round" stroke-opacity="0.6" stroke-width="6" transform="rotate(90, 108.0, 132.0)" width="50" x="83" y="112"/>
<rect fill="#E9E3D6" height="40" opacity="0.2" stroke="#AC443A" stroke-linecap="round" stroke-opacity="0.8" stroke-width="4" transform="rotate(180, 30.0, 35.0)" width="50" x="5" y="15"/>
<polygon fill="#DBA3AF" opacity="0.4" stroke="#DBA3AF" stroke-linecap="round" stroke-opacity="0.8" stroke-width="4" transform="rotate(180, 100.0, 94.0)" points="95.00,84.00 115.00,84.00 105.00,101.32"/>
<rect fill="#AC443A" height="20" opacity="0.2" stroke="#AC443A" stroke-linecap="round" stroke-opacity="0.8" stroke-width="4" transform="rotate(180, 16.0, 126.0)" width="50" x="-9" y="116"/>
<polygon fill="#E9E3D6" opacity="0.4" stroke="#AC443A" stroke-linecap="round" stroke-opacity="0.8" stroke-width="6" transform="rotate(180, 51.0, 77.0)" points="26.00,57.00 66.00,57.00 46.00,91.64"/>
<line fill="#45423E" opacity="0.2" stroke="#AC443A" stroke-linecap="round" stroke-opacity="0.6" stroke-width="4" x1="28" x2="100" y1="70" y2="70"/>
<rect fill="#E9E3D6" height="20" opacity="0.2" stroke="#E9E3D6" stroke-linecap="round" stroke-opacity="0.6" stroke-width="6" transform="rotate(90, 71.0, 66.0)" width="10" x="66" y="56"/>
<rect fill="#DBA3AF" height="40" opacity="0.2" stroke="#45423E" stroke-linecap="round" stroke-opacity="0.8" stroke-width="6" transform="rotate(90, 96.0, 104.0)" width="10" x="91" y="84"/>
<circle fill="#DBA3AF" opacity="0.2" stroke="#45423E" stroke-linecap="round" stroke-opacity="0.6" stroke-width="4" r="20.00" cx="50.00" cy="82.00"/>
<rect fill="#AC443A" height="40" opacity="0.2" stroke="#45423E" stroke-linecap="round" stroke-opacity="0.8" stroke-width="6" transform="rotate(90, 106.0, 26.0)" width="10" x="101" y="6"/>
<rect fill="#AC443A" height="40" opacity="0.2" stroke="#AC443A" stroke-linecap="round" stroke-opacity="0.6" stroke-width="6" transform="rotate(180, 26.0, 14.0)" width="50" x="1" y="-6"/>
<polygon fill="#AC443A" opacity="0.2" stroke="#45423E" stroke-linecap="round" stroke-opacity="0.8" stroke-width="4" transform="rotate(180, 48.0, 63.0)" points="23.00,43.00 63.00,43.00 43.00,77.64"/>
<circle fill="#45423E" opacity="0.2" stroke="#DBA3AF" stroke-linecap="round" stroke-opacity="0.8" stroke-width="6" r="20.00" cx="41.00" cy="37.00"/>
<rect fill="#AC443A" height="40" opacity="0.2" stroke="#AC443A" stroke-linecap="round" stroke-opacity="0.6" stroke-width="6" transform="rotate(180, 87.0, 19.0)" width="10" x="82" y="-1"/>
<circle fill="#DBA3AF" opacity="0.2" stroke="#DBA3AF" stroke-linecap="round" stroke-opacity="0.6" stroke-width="4" r="20.00" cx="0.00" cy="30.00"/>
<line fill="#45423E" opacity="0.4" stroke="#DBA3AF" stroke-linecap="round" stroke-opacity="0.8" stroke-width="4" x1="15" x2="34" y1="82" y2="82"/>
<line fill="#AC443A" opacity="0.2" stroke="#E9E3D6" stroke-linecap="round" stroke-opacity="0.8" stroke-width="6" x1="84" x2="94" y1="94" y2="94"/>
<circle fill="#E9E3D6" opacity="0.4" stroke="#AC443A" stroke-linecap="round" stroke-opacity="0.8" stroke-width="6" r="25.00" cx="11.00" cy="60.00"/>
<polygon fill="#E9E3D6" opacity="0.4" stroke="#E9E3D6" stroke-linecap="round" stroke-opacity="0.6" stroke-width="4" transform="rotate(180, 80.0, 114.0)" points="75.00,94.00 115.00,94.00 95.00,128.64"/>
<rect fill="#E9E3D6" height="40" opacity="0.4" stroke="#45423E" stroke-linecap="round" stroke-opacity="0.8" stroke-width="4" transform="rotate(90, 113.0, 94.0)" width="10" x="108" y="74"/>
<rect fill="#AC443A" height="40" opacity="0.4" stroke="#DBA3AF" stroke-linecap="round" stroke-opacity="0.8" stroke-width="6" transform="rotate(180, 79.0, 74.0)" width="50" x="54" y="54"/>
<line fill="#DBA3AF" opacity="0.4" stroke="#E9E3D6" stroke-linecap="round" stroke-opacity="0.6" stroke-width="6" x1="18" x2="93" y1="10" y2="10"/>
<line fill="#45423E" opacity="0.4" stroke="#AC443A" stroke-linecap="round" stroke-opacity="0.8" stroke-width="4" x1="20" x2="12" y1="22" y2="22"/>
<polygon fill="#45423E" opacity="0.4" stroke="#AC443A" stroke-linecap="round" stroke-opacity="0.8" stroke-width="4" transform="rotate(180, 54.0, 54.0)" points="49.00,34.00 89.00,34.00 69.00,68.64"/>
<rect fill="#AC443A" height="40" opacity="0.2" stroke="#45423E" stroke-linecap="round" stroke-opacity="0.6" stroke-width="6" transform="rotate(180, 70.0, 32.0)" width="10" x="65" y="12"/>
<rect fill="#45423E" height="20" opacity="0.4" stroke="#DBA3AF" stroke-linecap="round" stroke-opacity="0.6" stroke-width="6" transform="rotate(90, 105.0, 76.0)" width="10" x="100" y="66"/>
<rect fill="#E9E3D6" height="20" opacity="0.2" stroke="#E9E3D6" stroke-linecap="round" stroke-opacity="0.6" stroke-width="4" transform="rotate(90, 58.0, 37.0)" width="50" x="33" y="27"/>
<polygon fill="#45423E" opacity="0.4" stroke="#DBA3AF" stroke-linecap="round" stroke-opacity="0.6" stroke-width="4" transform="rotate(180, 111.0, 5.0)" points="106.00,-5.00 126.00,-5.00 116.00,12.32"/>
<polygon fill="#45423E" opacity="0.4" stroke="#DBA3AF" stroke-linecap="round" stroke-opacity="0.6" stroke-width="4" transform="rotate(180, 45.0, 45.0)" points="40.00,35.00 60.00,35.00 50.00,52.32"/>
<line fill="#45423E" opacity="0.4" stroke="#E9E3D6" stroke-linecap="round" stroke-opacity="0.6" stroke-width="4" x1="45" x2="49" y1="34" y2="34"/>
<line fill="#E9E3D6" opacity="0.4" stroke="#AC443A" stroke-linecap="round" stroke-opacity="0.8" stroke-width="6" x1="60" x2="36" y1="46" y2="46"/>
<rect fill="#AC443A" height="40" opacity="0.4" stroke="#AC443A" stroke-linecap="round" stroke-opacity="0.6" stroke-width="4" transform="rotate(90, 121.0, 84.0)" width="10" x="116" y="64"/>
<polygon fill="#45423E" opacity="0.4" stroke="#45423E" stroke-linecap="round" stroke-opacity="0.8" stroke-width="4" transform="rotate(90, 44.0, 138.0)" points="39.00,118.00 79.00,118.00 59.00,152.64"/>
<line fill="#DBA3AF" opacity="0.2" stroke="#DBA3AF" stroke-linecap="round" stroke-opacity="0.8" stroke-width="4" x1="70" x2="38" y1="58" y2="58"/>
<rect fill="#45423E" height="20" opacity="0.4" stroke="#DBA3AF" stroke-linecap="round" stroke-opacity="0.8" stroke-width="4" transform="rotate(180, 2.0, 96.0)" width="10" x="-3" y="86"/>
<polygon fill="#45423E" opacity="0.4" stroke="#E9E3D6" stroke-linecap="round" stroke-opacity="0.8" stroke-width="4" transform="rotate(90, 26.0, 96.0)" points="1.00,76.00 41.00,76.00 21.00,110.64"/>
<circle fill="#AC443A" opacity="0.2" stroke="#AC443A" stroke-linecap="round" stroke-opacity="0.8" stroke-width="4" r="20.00" cx="57.00" cy="104.00"/>
<rect fill="#DBA3AF" height="20" opacity="0.4" stroke="#DBA3AF" stroke-linecap="round" stroke-opacity="0.6" stroke-width="6" transform="rotate(180, 77.0, 10.0)" width="50" x="52" y="0"/>
<circle fill="#DBA3AF" opacity="0.4" stroke="#45423E" stroke-linecap="round" stroke-opacity="0.6" stroke-width="6" r="25.00" cx="15.00" cy="94.00"/>
<line fill="#AC443A" opacity="0.4" stroke="#AC443A" stroke-linecap="round" stroke-opacity="0.8" stroke-width="4" x1="60" x2="91" y1="70" y2="70"/>
<line fill="#DBA3AF" opacity="0.4" stroke="#E9E3D6" stroke-linecap="round" stroke-opacity="0.6" stroke-width="4" x1="59" x2="94" y1="82" y2="82"/>
<rect fill="#E9E3D6" height="20" opacity="0.4" stroke="#E9E3D6" stroke-linecap="round" stroke-opacity="0.8" stroke-width="4" transform="rotate(90, 132.0, 3.0)" width="50" x="107" y="-7"/>
<circle fill="#AC443A" opacity="0.4" stroke="#45423E" stroke-linecap="round" stroke-opacity="0.6" stroke-width="6" r="25.00" cx="5.00" cy="13.00"/>
</svg>
