<?xml version="1.0" standalone="no"?>
<svg xmlns="http://www.w3.org/2000/svg" xmlns:xlink="http://www.w3.org/1999/xlink/" width="21in" height="21in" viewBox="0 0 100 100" version="1.2">

  <desc>Picture by J. Wendt</desc>
  <!-- START Generator PARAMETERS in Json -->
  <desc>{"params":{"structure":"RANDOM","figures":["rc",[["rect","polygon","circle","rect","polygon","circle","rect","rect","line"]]],"palette":["rgb(0, 30, 140)","rgb(125, 20, 95)","rgb(125, 90, 70)","rgb(50, 150, 55)","rgb(50, 30, 100)","rgb(150, 60, 45)","rgb(25, 110, 115)","rgb(150, 90, 110)","rgb(100, 10, 45)","rgb(150, 80, 75)","rgb(125, 140, 65)","rgb(50, 90, 35)","rgb(125, 10, 75)","rgb(150, 120, 70)","rgb(75, 90, 80)","rgb(25, 70, 140)","rgb(0, 60, 125)","rgb(125, 150, 120)","rgb(100, 50, 145)","rgb(25, 60, 10)","rgb(150, 150, 30)","rgb(125, 160, 115)","rgb(50, 80, 35)","rgb(125, 80, 125)","rgb(0, 50, 120)","rgb(100, 80, 120)","rgb(125, 10, 65)","rgb(100, 140, 80)","rgb(50, 30, 40)","rgb(100, 150, 135)","rgb(75, 150, 130)","rgb(150, 50, 55)","rgb(25, 160, 65)","rgb(150, 70, 40)","rgb(100, 40, 135)","rgb(75, 140, 145)"],"fill":["rc",[["rgb(0, 30, 140)","rgb(125, 20, 95)","rgb(125, 90, 70)","rgb(50, 150, 55)","rgb(50, 30, 100)","rgb(150, 60, 45)","rgb(25, 110, 115)","rgb(150, 90, 110)","rgb(100, 10, 45)","rgb(150, 80, 75)","rgb(125, 140, 65)","rgb(50, 90, 35)","rgb(125, 10, 75)","rgb(150, 120, 70)","rgb(75, 90, 80)","rgb(25, 70, 140)","rgb(0, 60, 125)","rgb(125, 150, 120)","rgb(100, 50, 145)","rgb(25, 60, 10)","rgb(150, 150, 30)","rgb(125, 160, 115)","rgb(50, 80, 35)","rgb(125, 80, 125)","rgb(0, 50, 120)","rgb(100, 80, 120)","rgb(125, 10, 65)","rgb(100, 140, 80)","rgb(50, 30, 40)","rgb(100, 150, 135)","rgb(75, 150, 130)","rgb(150, 50, 55)","rgb(25, 160, 65)","rgb(150, 70, 40)","rgb(100, 40, 135)","rgb(75, 140, 145)"]]],"stroke-linecap":["rc",[["round"]]],"width":["rc",[[50,10]]],"stroke-opacity":["rc",[[0.8,0.6]]],"transform":["rc",[[0,180]]],"stroke":["rc",[["rgb(0, 30, 140)","rgb(125, 20, 95)","rgb(125, 90, 70)","rgb(50, 150, 55)","rgb(50, 30, 100)","rgb(150, 60, 45)","rgb(25, 110, 115)","rgb(150, 90, 110)","rgb(100, 10, 45)","rgb(150, 80, 75)","rgb(125, 140, 65)","rgb(50, 90, 35)","rgb(125, 10, 75)","rgb(150, 120, 70)","rgb(75, 90, 80)","rgb(25, 70, 140)","rgb(0, 60, 125)","rgb(125, 150, 120)","rgb(100, 50, 145)","rgb(25, 60, 10)","rgb(150, 150, 30)","rgb(125, 160, 115)","rgb(50, 80, 35)","rgb(125, 80, 125)","rgb(0, 50, 120)","rgb(100, 80, 120)","rgb(125, 10, 65)","rgb(100, 140, 80)","rgb(50, 30, 40)","rgb(100, 150, 135)","rgb(75, 150, 130)","rgb(150, 50, 55)","rgb(25, 160, 65)","rgb(150, 70, 40)","rgb(100, 40, 135)","rgb(75, 140, 145)"]]],"height":["rc",[[40,20]]],"y":["ri",[-20,120]],"colorid":651,"stroke-width":["rc",[[6,4]]],"x":["ri",[-20,120]],"nr_of_figures":56,"opacity":["rc",[[0.6,0.8]]]}}</desc>
  <!-- END Generator PARAMETERS in Json -->

  <!-- Show outline of canvas using 'rect' element -->
  <rect id="bg-00" x="0" y="0" width="100" height="100" fill="sand" opacity=".8" stroke="white" stroke-opacity=".3" stroke-width="0.1"/>

<rect fill="rgb(50, 30, 40)" height="40" opacity="0.8" stroke="rgb(150, 150, 30)" stroke-linecap="round" stroke-opacity="0.8" stroke-width="6" transform="rotate(0, 11.0, 133.0)" width="10" x="6" y="113"/>
<rect fill="rgb(125, 90, 70)" height="40" opacity="0.6" stroke="rgb(150, 90, 110)" stroke-linecap="round" stroke-opacity="0.8" stroke-width="4" transform="rotate(0, 12.0, 134.0)" width="10" x="7" y="114"/>
<polygon fill="rgb(0, 30, 140)" opacity="0.8" stroke="rgb(150, 60, 45)" stroke-linecap="round" stroke-opacity="0.8" stroke-width="4" transform="rotate(0, 17.0, 87.0)" points="12.00,77.00 32.00,77.00 22.00,94.32"/>
<line fill="rgb(100, 40, 135)" opacity="0.6" stroke="rgb(125, 140, 65)" stroke-linecap="round" stroke-opacity="0.6" stroke-width="4" x1="2" x2="96" y1="10" y2="10"/>
<polygon fill="rgb(150, 50, 55)" opacity="0.8" stroke="rgb(100, 80, 120)" stroke-linecap="round" stroke-opacity="0.6" stroke-width="6" transform="rotate(180, 32.0, 115.0)" points="27.00,95.00 67.00,95.00 47.00,129.64"/>
<line fill="rgb(50, 80, 35)" opacity="0.6" stroke="rgb(75, 150, 130)" stroke-linecap="round" stroke-opacity="0.8" stroke-width="4" x1="19" x2="97" y1="22" y2="22"/>
<rect fill="rgb(25, 110, 115)" height="40" opacity="0.8" stroke="rgb(150, 120, 70)" stroke-linecap="round" stroke-opacity="0.8" stroke-width="6" transform="rotate(180, 18.0, 32.0)" width="10" x="13" y="12"/>
<rect fill="rgb(50, 80, 35)" height="40" opacity="0.6" stroke="rgb(125, 160, 115)" stroke-linecap="round" stroke-opacity="0.8" stroke-width="6" transform="rotate(180, 6.0, 3.0)" width="50" x="-19" y="-17"/>
<line fill="rgb(125, 90, 70)" opacity="0.8" stroke="rgb(125, 140, 65)" stroke-linecap="round" stroke-opacity="0.8" stroke-width="6" x1="46" x2="96" y1="34" y2="34"/>
<rect fill="rgb(75, 140, 145)" height="20" opacity="0.8" stroke="rgb(100, 50, 145)" stroke-linecap="round" stroke-opacity="0.8" stroke-width="4" transform="rotate(0, 112.0, 19.0)" width="10" x="107" y="9"/>
<polygon fill="rgb(100, 80, 120)" opacity="0.6" stroke="rgb(125, 90, 70)" stroke-linecap="round" stroke-opacity="0.8" stroke-width="4" transform="rotate(0, 69.0, 139.0)" points="64.00,119.00 104.00,119.00 84.00,153.64"/>
<rect fill="rgb(100, 10, 45)" height="40" opacity="0.8" stroke="rgb(75, 90, 80)" stroke-linecap="round" stroke-opacity="0.6" stroke-width="4" transform="rotate(0, 133.0, 78.0)" width="50" x="108" y="58"/>
<polygon fill="rgb(25, 70, 140)" opacity="0.8" stroke="rgb(100, 10, 45)" stroke-linecap="round" stroke-opacity="0.6" stroke-width="4" transform="rotate(0, 121.0, 46.0)" points="96.00,36.00 116.00,36.00 106.00,53.32"/>
<rect fill="rgb(50, 80, 35)" height="40" opacity="0.6" stroke="rgb(125, 140, 65)" stroke-linecap="round" stroke-opacity="0.8" stroke-width="6" transform="rotate(0, 22.0, 100.0)" width="50" x="-3" y="80"/>
<rect fill="rgb(125, 20, 95)" height="20" opacity="0.6" stroke="rgb(100, 150, 135)" stroke-linecap="round" stroke-opacity="0.8" stroke-width="6" transform="rotate(0, 41.0, 83.0)" width="10" x="36" y="73"/>
<circle fill="rgb(0, 60, 125)" opacity="0.6" stroke="rgb(100, 50, 145)" stroke-linecap="round" stroke-opacity="0.8" stroke-width="6" r="10.00" cx="118.00" cy="54.00"/>
<line fill="rgb(125, 160, 115)" opacity="0.6" stroke="rgb(100, 10, 45)" stroke-linecap="round" stroke-opacity="0.8" stroke-width="6" x1="2" x2="95" y1="46" y2="46"/>
<rect fill="rgb(150, 120, 70)" height="20" opacity="0.6" stroke="rgb(150, 150, 30)" stroke-linecap="round" stroke-opacity="0.6" stroke-width="4" transform="rotate(0, 7.0, 60.0)" width="10" x="2" y="50"/>
<rect fill="rgb(150, 80, 75)" height="40" opacity="0.6" stroke="rgb(0, 50, 120)" stroke-linecap="round" stroke-opacity="0.6" stroke-width="6" transform="rotate(0, 46.0, 20.0)" width="10" x="41" y="0"/>
<rect fill="rgb(25, 60, 10)" height="20" opacity="0.8" stroke="rgb(125, 10, 65)" stroke-linecap="round" stroke-opacity="0.8" stroke-width="6" transform="rotate(180, 80.0, 38.0)" width="50" x="55" y="28"/>
<line fill="rgb(50, 90, 35)" opacity="0.8" stroke="rgb(150, 60, 45)" stroke-linecap="round" stroke-opacity="0.8" stroke-width="6" x1="28" x2="96" y1="58" y2="58"/>
<circle fill="rgb(125, 10, 75)" opacity="0.8" stroke="rgb(100, 50, 145)" stroke-linecap="round" stroke-opacity="0.8" stroke-width="4" r="25.00" cx="56.00" cy="48.00"/>
<polygon fill="rgb(125, 150, 120)" opacity="0.6" stroke="rgb(150, 60, 45)" stroke-linecap="round" stroke-opacity="0.6" stroke-width="4" transform="rotate(180, 31.0, 81.0)" points="6.00,61.00 46.00,61.00 26.00,95.64"/>
<polygon fill="rgb(125, 10, 75)" opacity="0.6" stroke="rgb(100, 140, 80)" stroke-linecap="round" stroke-opacity="0.8" stroke-width="6" transform="rotate(180, 56.0, 49.0)" points="51.00,29.00 91.00,29.00 71.00,63.64"/>
<polygon fill="rgb(75, 150, 130)" opacity="0.6" stroke="rgb(25, 110, 115)" stroke-linecap="round" stroke-opacity="0.6" stroke-width="4" transform="rotate(0, -6.0, 57.0)" points="-11.00,47.00 9.00,47.00 -1.00,64.32"/>
<line fill="rgb(125, 160, 115)" opacity="0.8" stroke="rgb(125, 10, 75)" stroke-linecap="round" stroke-opacity="0.6" stroke-width="6" x1="46" x2="95" y1="70" y2="70"/>
<polygon fill="rgb(125, 10, 65)" opacity="0.8" stroke="rgb(25, 110, 115)" stroke-linecap="round" stroke-opacity="0.8" stroke-width="4" transform="rotate(0, 73.0, 100.0)" points="68.00,90.00 88.00,90.00 78.00,107.32"/>
<rect fill="rgb(150, 90, 110)" height="20" opacity="0.8" stroke="rgb(0, 30, 140)" stroke-linecap="round" stroke-opacity="0.6" stroke-width="4" transform="rotate(180, 12.0, 120.0)" width="50" x="-13" y="110"/>
<rect fill="rgb(50, 30, 100)" height="20" opacity="0.6" stroke="rgb(150, 80, 75)" stroke-linecap="round" stroke-opacity="0.6" stroke-width="6" transform="rotate(0, 81.0, -5.0)" width="10" x="76" y="-15"/>
<rect fill="rgb(150, 150, 30)" height="40" opacity="0.6" stroke="rgb(25, 110, 115)" stroke-linecap="round" stroke-opacity="0.8" stroke-width="6" transform="rotate(0, 56.0, 46.0)" width="10" x="51" y="26"/>
<rect fill="rgb(100, 50, 145)" height="20" opacity="0.6" stroke="rgb(25, 60, 10)" stroke-linecap="round" stroke-opacity="0.8" stroke-width="4" transform="rotate(0, 57.0, 71.0)" width="50" x="32" y="61"/>
<rect fill="rgb(25, 60, 10)" height="40" opacity="0.6" stroke="rgb(50, 30, 100)" stroke-linecap="round" stroke-opacity="0.8" stroke-width="6" transform="rotate(0, 75.0, 12.0)" width="50" x="50" y="-8"/>
<circle fill="rgb(75, 140, 145)" opacity="0.6" stroke="rgb(25, 70, 140)" stroke-linecap="round" stroke-opacity="0.8" stroke-width="6" r="20.00" cx="108.00" cy="93.00"/>
<line fill="rgb(125, 150, 120)" opacity="0.8" stroke="rgb(75, 140, 145)" stroke-linecap="round" stroke-opacity="0.6" stroke-width="4" x1="43" x2="96" y1="82" y2="82"/>
<rect fill="rgb(75, 150, 130)" height="40" opacity="0.8" stroke="rgb(50, 150, 55)" stroke-linecap="round" stroke-opacity="0.8" stroke-width="4" transform="rotate(0, 69.0, 31.0)" width="10" x="64" y="11"/>
<rect fill="rgb(50, 30, 100)" height="20" opacity="0.6" stroke="rgb(125, 150, 120)" stroke-linecap="round" stroke-opacity="0.6" stroke-width="4" transform="rotate(0, 16.0, 95.0)" width="50" x="-9" y="85"/>
<line fill="rgb(150, 60, 45)" opacity="0.6" stroke="rgb(75, 150, 130)" stroke-linecap="round" stroke-opacity="0.6" stroke-width="6" x1="13" x2="95" y1="94" y2="94"/>
<circle fill="rgb(0, 50, 120)" opacity="0.8" stroke="rgb(125, 10, 75)" stroke-linecap="round" stroke-opacity="0.8" stroke-width="4" r="10.00" cx="33.00" cy="111.00"/>
<rect fill="rgb(50, 90, 35)" height="20" opacity="0.8" stroke="rgb(150, 50, 55)" stroke-linecap="round" stroke-opacity="0.6" stroke-width="6" transform="rotate(0, 102.0, 60.0)" width="50" x="77" y="50"/>
<rect fill="rgb(150, 150, 30)" height="20" opacity="0.8" stroke="rgb(150, 70, 40)" stroke-linecap="round" stroke-opacity="0.6" stroke-width="6" transform="rotate(180, 57.0, 4.0)" width="50" x="32" y="-6"/>
<rect fill="rgb(75, 150, 130)" height="40" opacity="0.6" stroke="rgb(75, 150, 130)" stroke-linecap="round" stroke-opacity="0.8" stroke-width="6" transform="rotate(0, 82.0, 7.0)" width="50" x="57" y="-13"/>
<polygon fill="rgb(100, 80, 120)" opacity="0.8" stroke="rgb(125, 160, 115)" stroke-linecap="round" stroke-opacity="0.8" stroke-width="4" transform="rotate(180, 141.0, 36.0)" points="116.00,26.00 136.00,26.00 126.00,43.32"/>
<polygon fill="rgb(150, 120, 70)" opacity="0.8" stroke="rgb(0, 60, 125)" stroke-linecap="round" stroke-opacity="0.8" stroke-width="4" transform="rotate(0, 121.0, 41.0)" points="96.00,31.00 116.00,31.00 106.00,48.32"/>
<circle fill="rgb(125, 150, 120)" opacity="0.6" stroke="rgb(150, 70, 40)" stroke-linecap="round" stroke-opacity="0.8" stroke-width="6" r="25.00" cx="81.00" cy="22.00"/>
<line fill="rgb(50, 30, 100)" opacity="0.6" stroke="rgb(125, 10, 75)" stroke-linecap="round" stroke-opacity="0.8" stroke-width="4" x1="19" x2="95" y1="10" y2="10"/>
<line fill="rgb(100, 80, 120)" opacity="0.6" stroke="rgb(100, 150, 135)" stroke-linecap="round" stroke-opacity="0.8" stroke-width="6" x1="46" x2="95" y1="22" y2="22"/>
<rect fill="rgb(125, 150, 120)" height="40" opacity="0.6" stroke="rgb(100, 80, 120)" stroke-linecap="round" stroke-opacity="0.6" stroke-width="4" transform="rotate(0, 110.0, 14.0)" width="50" x="85" y="-6"/>
<line fill="rgb(50, 30, 100)" opacity="0.6" stroke="rgb(150, 120, 70)" stroke-linecap="round" stroke-opacity="0.6" stroke-width="4" x1="31" x2="96" y1="34" y2="34"/>
<line fill="rgb(50, 80, 35)" opacity="0.8" stroke="rgb(150, 50, 55)" stroke-linecap="round" stroke-opacity="0.6" stroke-width="4" x1="46" x2="95" y1="46" y2="46"/>
<rect fill="rgb(150, 90, 110)" height="20" opacity="0.6" stroke="rgb(0, 50, 120)" stroke-linecap="round" stroke-opacity="0.6" stroke-width="4" transform="rotate(180, 53.0, 4.0)" width="10" x="48" y="-6"/>
<line fill="rgb(50, 80, 35)" opacity="0.6" stroke="rgb(150, 90, 110)" stroke-linecap="round" stroke-opacity="0.6" stroke-width="4" x1="2" x2="95" y1="58" y2="58"/>
<rect fill="rgb(0, 30, 140)" height="20" opacity="0.8" stroke="rgb(25, 160, 65)" stroke-linecap="round" stroke-opacity="0.6" stroke-width="6" transform="rotate(180, 1.0, -2.0)" width="10" x="-4" y="-12"/>
<circle fill="rgb(100, 40, 135)" opacity="0.8" stroke="rgb(150, 150, 30)" stroke-linecap="round" stroke-opacity="0.8" stroke-width="4" r="25.00" cx="7.00" cy="133.00"/>
<circle fill="rgb(125, 80, 125)" opacity="0.6" stroke="rgb(150, 70, 40)" stroke-linecap="round" stroke-opacity="0.8" stroke-width="6" r="25.00" cx="110.00" cy="44.00"/>
<polygon fill="rgb(50, 30, 100)" opacity="0.6" stroke="rgb(150, 120, 70)" stroke-linecap="round" stroke-opacity="0.8" stroke-width="6" transform="rotate(0, 47.0, 106.0)" points="22.00,96.00 42.00,96.00 32.00,113.32"/>
<rect fill="rgb(25, 110, 115)" height="40" opacity="0.6" stroke="rgb(100, 10, 45)" stroke-linecap="round" stroke-opacity="0.8" stroke-width="6" transform="rotate(0, 2.0, 128.0)" width="10" x="-3" y="108"/>
</svg>