<?xml version="1.0" standalone="no"?>
<svg xmlns="http://www.w3.org/2000/svg" xmlns:xlink="http://www.w3.org/1999/xlink/" width="20in" height="12in" viewBox="0 0 100 60" version="1.2">

  <desc>Picture by J. Wendt</desc>
  <!-- START Generator PARAMETERS in Json -->
  <desc>{"params":{"structure":"RANDOM","nr_of_figures":96,"rows":12,"columns":6,"x":["ri",[-20,80]],"y":["ri",[-20,120]],"height":["rr",[5,34,4]],"width":["rr",[3,21,5]],"palette":["#F75545","#2777FD","#9C2273","#A9CC5C","#1A4417","#415545","#1A332E","#7533FD","#4EEEB8","#003345","#B69917","#68AAE6"],"figures":["rc",[["polygon","circle","rect"]]],"fill":["rc",[["#F75545","#2777FD","#9C2273","#A9CC5C","#1A4417","#415545","#1A332E","#7533FD","#4EEEB8","#003345","#B69917","#68AAE6"]]],"stroke":["rc",[["#F75545","#2777FD","#9C2273","#A9CC5C","#1A4417","#415545","#1A332E","#7533FD","#4EEEB8","#003345","#B69917","#68AAE6"]]],"stroke-opacity":["rc",[[0.2,0.3,1]]],"stroke-width":["ri",[10,25]]}}</desc>
  <!-- END Generator PARAMETERS in Json -->

  <!-- Show outline of canvas using 'rect' element -->
  <rect id="bg-00" x="0" y="0" width="100" height="60" fill="#415545" opacity=".3" stroke="#32A0A5" stroke-opacity=".3" stroke-width="0.1"/>

<rect fill="#003345" height="17" stroke="#F75545" stroke-opacity="0.3" stroke-width="11" width="3" x="5" y="48"/>
<polygon fill="#F75545" stroke="#1A332E" stroke-opacity="0.2" stroke-width="11" points="-7.00,19.00 6.00,19.00 -0.50,30.26"/>
<polygon fill="#415545" stroke="#2777FD" stroke-opacity="0.2" stroke-width="18" points="78.00,80.00 111.00,80.00 94.50,108.58"/>
<rect fill="#4EEEB8" height="33" stroke="#003345" stroke-opacity="0.3" stroke-width="23" width="13" x="-9" y="2"/>
<circle fill="#A9CC5C" stroke="#F75545" stroke-opacity="0.2" stroke-width="16" r="6.50" cx="34.50" cy="-3.50"/>
<rect fill="#1A4417" height="9" stroke="#F75545" stroke-opacity="0.3" stroke-width="13" width="18" x="-20" y="63"/>
<circle fill="#F75545" stroke="#A9CC5C" stroke-opacity="0.2" stroke-width="16" r="12.50" cx="36.50" cy="11.50"/>
<polygon fill="#1A332E" stroke="#2777FD" stroke-opacity="0.2" stroke-width="10" points="-18.00,76.00 -9.00,76.00 -13.50,83.79"/>
<polygon fill="#2777FD" stroke="#415545" stroke-opacity="0.3" stroke-width="19" points="-12.00,56.00 9.00,56.00 -1.50,74.19"/>
<polygon fill="#9C2273" stroke="#1A332E" stroke-opacity="0.2" stroke-width="15" points="-15.00,29.00 -2.00,29.00 -8.50,40.26"/>
<rect fill="#415545" height="25" stroke="#003345" stroke-opacity="0.3" stroke-width="18" width="13" x="15" y="61"/>
<polygon fill="#9C2273" stroke="#2777FD" stroke-opacity="0.3" stroke-width="23" points="56.00,17.00 81.00,17.00 68.50,38.65"/>
<polygon fill="#415545" stroke="#F75545" stroke-opacity="0.2" stroke-width="21" points="27.00,34.00 52.00,34.00 39.50,55.65"/>
<polygon fill="#68AAE6" stroke="#2777FD" stroke-opacity="0.3" stroke-width="19" points="-20.00,36.00 -7.00,36.00 -13.50,47.26"/>
<circle fill="#F75545" stroke="#1A332E" stroke-opacity="0.3" stroke-width="21" r="6.50" cx="28.50" cy="93.50"/>
<circle fill="#2777FD" stroke="#1A4417" stroke-opacity="1" stroke-width="11" r="14.50" cx="86.50" cy="98.50"/>
<circle fill="#1A4417" stroke="#B69917" stroke-opacity="1" stroke-width="25" r="6.50" cx="68.50" cy="95.50"/>
<rect fill="#1A4417" height="9" stroke="#003345" stroke-opacity="0.3" stroke-width="18" width="13" x="61" y="66"/>
<circle fill="#A9CC5C" stroke="#B69917" stroke-opacity="0.3" stroke-width="14" r="10.50" cx="68.50" cy="111.50"/>
<circle fill="#003345" stroke="#2777FD" stroke-opacity="0.2" stroke-width="18" r="10.50" cx="70.50" cy="114.50"/>
<rect fill="#7533FD" height="33" stroke="#A9CC5C" stroke-opacity="0.2" stroke-width="12" width="18" x="80" y="95"/>
<rect fill="#68AAE6" height="33" stroke="#4EEEB8" stroke-opacity="1" stroke-width="21" width="18" x="23" y="45"/>
<circle fill="#A9CC5C" stroke="#415545" stroke-opacity="1" stroke-width="20" r="9.00" cx="-11.00" cy="31.00"/>
<rect fill="#1A332E" height="9" stroke="#A9CC5C" stroke-opacity="1" stroke-width="14" width="18" x="2" y="79"/>
<circle fill="#2777FD" stroke="#003345" stroke-opacity="0.2" stroke-width="13" r="8.50" cx="64.50" cy="2.50"/>
<rect fill="#1A4417" height="5" stroke="#F75545" stroke-opacity="1" stroke-width="16" width="13" x="75" y="76"/>
<circle fill="#415545" stroke="#4EEEB8" stroke-opacity="1" stroke-width="19" r="10.50" cx="56.50" cy="61.50"/>
<circle fill="#68AAE6" stroke="#A9CC5C" stroke-opacity="0.3" stroke-width="15" r="9.00" cx="30.00" cy="47.00"/>
<polygon fill="#9C2273" stroke="#003345" stroke-opacity="1" stroke-width="15" points="77.00,62.00 106.00,62.00 91.50,87.11"/>
<rect fill="#68AAE6" height="21" stroke="#68AAE6" stroke-opacity="1" stroke-width="11" width="13" x="56" y="9"/>
<polygon fill="#1A4417" stroke="#7533FD" stroke-opacity="0.3" stroke-width="14" points="32.00,24.00 37.00,24.00 34.50,28.33"/>
<circle fill="#7533FD" stroke="#415545" stroke-opacity="1" stroke-width="12" r="12.50" cx="63.50" cy="99.50"/>
<polygon fill="#1A332E" stroke="#003345" stroke-opacity="0.2" stroke-width="13" points="17.00,73.00 22.00,73.00 19.50,77.33"/>
<rect fill="#1A4417" height="9" stroke="#9C2273" stroke-opacity="0.3" stroke-width="13" width="3" x="40" y="52"/>
<rect fill="#68AAE6" height="29" stroke="#68AAE6" stroke-opacity="0.2" stroke-width="24" width="13" x="-5" y="-19"/>
<rect fill="#4EEEB8" height="17" stroke="#415545" stroke-opacity="0.2" stroke-width="22" width="13" x="-16" y="91"/>
<polygon fill="#A9CC5C" stroke="#2777FD" stroke-opacity="0.3" stroke-width="15" points="53.00,55.00 78.00,55.00 65.50,76.65"/>
<circle fill="#68AAE6" stroke="#9C2273" stroke-opacity="1" stroke-width="18" r="2.50" cx="43.50" cy="87.50"/>
<circle fill="#A9CC5C" stroke="#F75545" stroke-opacity="0.2" stroke-width="20" r="14.50" cx="31.50" cy="49.50"/>
<rect fill="#1A4417" height="5" stroke="#415545" stroke-opacity="1" stroke-width="24" width="8" x="-14" y="29"/>
<rect fill="#1A4417" height="21" stroke="#68AAE6" stroke-opacity="0.3" stroke-width="12" width="8" x="66" y="92"/>
<rect fill="#1A4417" height="33" stroke="#68AAE6" stroke-opacity="0.2" stroke-width="25" width="13" x="68" y="46"/>
<circle fill="#1A4417" stroke="#1A4417" stroke-opacity="0.3" stroke-width="16" r="12.50" cx="-6.50" cy="66.50"/>
<polygon fill="#4EEEB8" stroke="#68AAE6" stroke-opacity="1" stroke-width="12" points="14.00,8.00 35.00,8.00 24.50,26.19"/>
<rect fill="#1A4417" height="17" stroke="#A9CC5C" stroke-opacity="0.2" stroke-width="24" width="18" x="74" y="25"/>
<rect fill="#415545" height="9" stroke="#4EEEB8" stroke-opacity="1" stroke-width="19" width="8" x="-1" y="1"/>
<circle fill="#9C2273" stroke="#2777FD" stroke-opacity="0.2" stroke-width="10" r="4.50" cx="52.50" cy="33.50"/>
<circle fill="#415545" stroke="#003345" stroke-opacity="0.3" stroke-width="13" r="16.50" cx="34.50" cy="125.50"/>
<circle fill="#1A4417" stroke="#B69917" stroke-opacity="1" stroke-width="20" r="14.50" cx="72.50" cy="42.50"/>
<circle fill="#F75545" stroke="#1A332E" stroke-opacity="1" stroke-width="25" r="4.50" cx="-4.50" cy="112.50"/>
<rect fill="#003345" height="33" stroke="#1A4417" stroke-opacity="1" stroke-width="19" width="3" x="44" y="61"/>
<circle fill="#B69917" stroke="#7533FD" stroke-opacity="0.2" stroke-width="25" r="16.50" cx="64.50" cy="7.50"/>
<polygon fill="#F75545" stroke="#415545" stroke-opacity="0.3" stroke-width="12" points="9.00,-3.00 18.00,-3.00 13.50,4.79"/>
<rect fill="#1A4417" height="17" stroke="#415545" stroke-opacity="0.2" stroke-width="15" width="13" x="-3" y="100"/>
<rect fill="#2777FD" height="25" stroke="#4EEEB8" stroke-opacity="0.3" stroke-width="24" width="18" x="53" y="-5"/>
<circle fill="#1A332E" stroke="#1A332E" stroke-opacity="0.2" stroke-width="22" r="16.50" cx="67.50" cy="11.50"/>
<rect fill="#9C2273" height="25" stroke="#2777FD" stroke-opacity="1" stroke-width="16" width="18" x="-17" y="27"/>
<rect fill="#4EEEB8" height="5" stroke="#4EEEB8" stroke-opacity="1" stroke-width="17" width="18" x="43" y="83"/>
<polygon fill="#4EEEB8" stroke="#9C2273" stroke-opacity="1" stroke-width="11" points="36.00,109.00 57.00,109.00 46.50,127.19"/>
<rect fill="#2777FD" height="29" stroke="#003345" stroke-opacity="0.2" stroke-width="15" width="18" x="59" y="25"/>
<circle fill="#003345" stroke="#2777FD" stroke-opacity="1" stroke-width="14" r="8.50" cx="12.50" cy="9.50"/>
<circle fill="#9C2273" stroke="#F75545" stroke-opacity="0.2" stroke-width="23" r="10.50" cx="81.50" cy="64.50"/>
<polygon fill="#B69917" stroke="#003345" stroke-opacity="0.3" stroke-width="23" points="14.00,38.00 19.00,38.00 16.50,42.33"/>
<rect fill="#9C2273" height="17" stroke="#1A332E" stroke-opacity="1" stroke-width="23" width="13" x="0" y="-16"/>
<polygon fill="#415545" stroke="#68AAE6" stroke-opacity="0.2" stroke-width="21" points="29.00,2.00 46.00,2.00 37.50,16.72"/>
<polygon fill="#2777FD" stroke="#68AAE6" stroke-opacity="0.3" stroke-width="22" points="75.00,51.00 88.00,51.00 81.50,62.26"/>
<rect fill="#1A332E" height="9" stroke="#7533FD" stroke-opacity="1" stroke-width="20" width="8" x="4" y="69"/>
<polygon fill="#F75545" stroke="#1A332E" stroke-opacity="1" stroke-width="15" points="0.00,100.00 21.00,100.00 10.50,118.19"/>
<circle fill="#415545" stroke="#4EEEB8" stroke-opacity="1" stroke-width="14" r="4.00" cx="72.00" cy="59.00"/>
<polygon fill="#A9CC5C" stroke="#B69917" stroke-opacity="0.3" stroke-width="14" points="-9.00,73.00 0.00,73.00 -4.50,80.79"/>
<rect fill="#7533FD" height="9" stroke="#1A332E" stroke-opacity="0.2" stroke-width="22" width="13" x="-17" y="85"/>
<polygon fill="#2777FD" stroke="#1A4417" stroke-opacity="1" stroke-width="17" points="-1.00,72.00 24.00,72.00 11.50,93.65"/>
<rect fill="#1A4417" height="21" stroke="#2777FD" stroke-opacity="1" stroke-width="25" width="18" x="54" y="86"/>
<circle fill="#68AAE6" stroke="#9C2273" stroke-opacity="0.3" stroke-width="20" r="10.50" cx="67.50" cy="53.50"/>
<polygon fill="#1A332E" stroke="#003345" stroke-opacity="1" stroke-width="23" points="33.00,28.00 38.00,28.00 35.50,32.33"/>
<polygon fill="#B69917" stroke="#A9CC5C" stroke-opacity="0.3" stroke-width="12" points="-11.00,55.00 -2.00,55.00 -6.50,62.79"/>
<circle fill="#415545" stroke="#68AAE6" stroke-opacity="1" stroke-width="23" r="10.50" cx="18.50" cy="48.50"/>
<circle fill="#1A4417" stroke="#4EEEB8" stroke-opacity="0.2" stroke-width="22" r="16.50" cx="12.50" cy="90.50"/>
<polygon fill="#1A332E" stroke="#003345" stroke-opacity="0.3" stroke-width="14" points="68.00,84.00 93.00,84.00 80.50,105.65"/>
<circle fill="#1A4417" stroke="#1A4417" stroke-opacity="1" stroke-width="23" r="9.00" cx="89.00" cy="45.00"/>
<circle fill="#A9CC5C" stroke="#9C2273" stroke-opacity="0.2" stroke-width="15" r="8.50" cx="57.50" cy="70.50"/>
<circle fill="#B69917" stroke="#4EEEB8" stroke-opacity="0.3" stroke-width="12" r="10.50" cx="20.50" cy="93.50"/>
<rect fill="#68AAE6" height="21" stroke="#7533FD" stroke-opacity="0.2" stroke-width="15" width="3" x="12" y="30"/>
<rect fill="#68AAE6" height="9" stroke="#003345" stroke-opacity="0.2" stroke-width="16" width="13" x="63" y="34"/>
<circle fill="#1A4417" stroke="#4EEEB8" stroke-opacity="1" stroke-width="22" r="10.50" cx="33.50" cy="6.50"/>
<circle fill="#415545" stroke="#1A332E" stroke-opacity="1" stroke-width="14" r="10.50" cx="56.50" cy="-9.50"/>
<polygon fill="#A9CC5C" stroke="#9C2273" stroke-opacity="0.2" stroke-width="21" points="0.00,57.00 29.00,57.00 14.50,82.11"/>
<polygon fill="#415545" stroke="#1A332E" stroke-opacity="0.2" stroke-width="25" points="17.00,102.00 42.00,102.00 29.50,123.65"/>
<polygon fill="#A9CC5C" stroke="#003345" stroke-opacity="0.3" stroke-width="24" points="40.00,57.00 49.00,57.00 44.50,64.79"/>
<circle fill="#1A4417" stroke="#9C2273" stroke-opacity="0.3" stroke-width="12" r="16.50" cx="55.50" cy="9.50"/>
<circle fill="#A9CC5C" stroke="#7533FD" stroke-opacity="1" stroke-width="22" r="14.50" cx="71.50" cy="124.50"/>
<polygon fill="#B69917" stroke="#B69917" stroke-opacity="0.2" stroke-width="20" points="-14.00,105.00 -5.00,105.00 -9.50,112.79"/>
<polygon fill="#1A332E" stroke="#68AAE6" stroke-opacity="0.3" stroke-width="22" points="70.00,84.00 75.00,84.00 72.50,88.33"/>
<rect fill="#1A4417" height="17" stroke="#415545" stroke-opacity="1" stroke-width="14" width="13" x="47" y="84"/>
<rect fill="#003345" height="21" stroke="#2777FD" stroke-opacity="0.3" stroke-width="17" width="3" x="42" y="7"/>
<rect fill="#003345" height="33" stroke="#68AAE6" stroke-opacity="0.3" stroke-width="18" width="8" x="54" y="1"/>
</svg>