<?xml version="1.0" standalone="no"?>
<svg xmlns="http://www.w3.org/2000/svg" xmlns:xlink="http://www.w3.org/1999/xlink/" width="20in" height="12in" viewBox="0 0 100 60" version="1.2">

  <desc>Picture by J. Wendt</desc>
  <!-- START Generator PARAMETERS in Json -->
  <desc>{"params":{"structure":"RANDOM","nr_of_figures":96,"rows":12,"columns":6,"x":["ri",[-20,80]],"y":["ri",[-20,120]],"height":["rr",[5,34,4]],"width":["rr",[3,21,5]],"palette":["#F700CF","#1A228A","#D03373","#0DDD17","#34BBA1","#9CBBB8","#27EE8A","#41CC00","#C3558A","#75558A","#3499A1","#F777CF"],"figures":["rc",[["polygon","circle","rect"]]],"fill":["rc",[["#F700CF","#1A228A","#D03373","#0DDD17","#34BBA1","#9CBBB8","#27EE8A","#41CC00","#C3558A","#75558A","#3499A1","#F777CF"]]],"stroke":["rc",[["#D03373","#0DDD17","#34BBA1","#9CBBB8","#27EE8A","#41CC00","#C3558A"]]],"stroke-opacity":["rc",[[0.2,0.3,1]]],"stroke-width":["ri",[10,25]]}}</desc>
  <!-- END Generator PARAMETERS in Json -->

  <!-- Show outline of canvas using 'rect' element -->
  <rect id="bg-00" x="0" y="0" width="100" height="60" fill="#C3558A" opacity=".3" stroke="#32A0A5" stroke-opacity=".3" stroke-width="0.1"/>

<circle fill="#9CBBB8" stroke="#0DDD17" stroke-opacity="0.3" stroke-width="13" r="8.50" cx="34.50" cy="20.50"/>
<circle fill="#34BBA1" stroke="#9CBBB8" stroke-opacity="0.2" stroke-width="12" r="16.50" cx="46.50" cy="12.50"/>
<rect fill="#C3558A" height="5" stroke="#0DDD17" stroke-opacity="1" stroke-width="15" width="13" x="-11" y="100"/>
<circle fill="#1A228A" stroke="#D03373" stroke-opacity="0.2" stroke-width="16" r="9.00" cx="53.00" cy="49.00"/>
<polygon fill="#F700CF" stroke="#0DDD17" stroke-opacity="0.2" stroke-width="13" points="-16.00,11.00 -3.00,11.00 -9.50,22.26"/>
<rect fill="#9CBBB8" height="29" stroke="#41CC00" stroke-opacity="0.2" stroke-width="17" width="13" x="52" y="17"/>
<rect fill="#75558A" height="29" stroke="#0DDD17" stroke-opacity="1" stroke-width="22" width="18" x="35" y="111"/>
<polygon fill="#9CBBB8" stroke="#C3558A" stroke-opacity="1" stroke-width="24" points="45.00,34.00 78.00,34.00 61.50,62.58"/>
<polygon fill="#F700CF" stroke="#0DDD17" stroke-opacity="0.3" stroke-width="22" points="74.00,43.00 79.00,43.00 76.50,47.33"/>
<rect fill="#0DDD17" height="9" stroke="#0DDD17" stroke-opacity="0.2" stroke-width="11" width="8" x="12" y="86"/>
<circle fill="#F777CF" stroke="#0DDD17" stroke-opacity="1" stroke-width="20" r="9.00" cx="7.00" cy="94.00"/>
<polygon fill="#9CBBB8" stroke="#9CBBB8" stroke-opacity="0.2" stroke-width="13" points="-1.00,29.00 32.00,29.00 15.50,57.58"/>
<polygon fill="#0DDD17" stroke="#41CC00" stroke-opacity="0.3" stroke-width="12" points="59.00,-10.00 80.00,-10.00 69.50,8.19"/>
<circle fill="#9CBBB8" stroke="#D03373" stroke-opacity="0.2" stroke-width="17" r="6.50" cx="36.50" cy="-5.50"/>
<rect fill="#27EE8A" height="17" stroke="#9CBBB8" stroke-opacity="1" stroke-width="12" width="18" x="57" y="100"/>
<circle fill="#75558A" stroke="#41CC00" stroke-opacity="0.2" stroke-width="23" r="9.00" cx="76.00" cy="123.00"/>
<circle fill="#34BBA1" stroke="#0DDD17" stroke-opacity="1" stroke-width="22" r="14.50" cx="69.50" cy="132.50"/>
<circle fill="#27EE8A" stroke="#9CBBB8" stroke-opacity="0.2" stroke-width="16" r="16.50" cx="21.50" cy="4.50"/>
<polygon fill="#3499A1" stroke="#34BBA1" stroke-opacity="1" stroke-width="10" points="-9.00,64.00 4.00,64.00 -2.50,75.26"/>
<polygon fill="#C3558A" stroke="#0DDD17" stroke-opacity="0.2" stroke-width="20" points="72.00,-15.00 105.00,-15.00 88.50,13.58"/>
<circle fill="#34BBA1" stroke="#0DDD17" stroke-opacity="0.2" stroke-width="14" r="9.00" cx="63.00" cy="58.00"/>
<rect fill="#41CC00" height="9" stroke="#34BBA1" stroke-opacity="0.3" stroke-width="13" width="3" x="78" y="45"/>
<polygon fill="#27EE8A" stroke="#34BBA1" stroke-opacity="0.2" stroke-width="12" points="54.00,82.00 75.00,82.00 64.50,100.19"/>
<polygon fill="#9CBBB8" stroke="#41CC00" stroke-opacity="0.3" stroke-width="23" points="34.00,34.00 63.00,34.00 48.50,59.11"/>
<polygon fill="#F700CF" stroke="#34BBA1" stroke-opacity="0.2" stroke-width="20" points="-5.00,52.00 20.00,52.00 7.50,73.65"/>
<circle fill="#F777CF" stroke="#D03373" stroke-opacity="0.2" stroke-width="20" r="6.50" cx="-3.50" cy="104.50"/>
<circle fill="#F700CF" stroke="#D03373" stroke-opacity="0.2" stroke-width="12" r="9.00" cx="80.00" cy="29.00"/>
<polygon fill="#34BBA1" stroke="#0DDD17" stroke-opacity="1" stroke-width="13" points="48.00,91.00 77.00,91.00 62.50,116.11"/>
<polygon fill="#27EE8A" stroke="#34BBA1" stroke-opacity="0.2" stroke-width="12" points="-15.00,88.00 18.00,88.00 1.50,116.58"/>
<polygon fill="#C3558A" stroke="#9CBBB8" stroke-opacity="0.3" stroke-width="19" points="25.00,-4.00 54.00,-4.00 39.50,21.11"/>
<circle fill="#0DDD17" stroke="#9CBBB8" stroke-opacity="0.2" stroke-width="16" r="14.50" cx="1.50" cy="76.50"/>
<polygon fill="#75558A" stroke="#27EE8A" stroke-opacity="0.2" stroke-width="17" points="21.00,93.00 30.00,93.00 25.50,100.79"/>
<polygon fill="#34BBA1" stroke="#D03373" stroke-opacity="1" stroke-width="10" points="12.00,110.00 45.00,110.00 28.50,138.58"/>
<circle fill="#41CC00" stroke="#C3558A" stroke-opacity="1" stroke-width="14" r="14.50" cx="22.50" cy="14.50"/>
<rect fill="#27EE8A" height="9" stroke="#41CC00" stroke-opacity="0.3" stroke-width="13" width="3" x="66" y="97"/>
<rect fill="#75558A" height="9" stroke="#34BBA1" stroke-opacity="0.3" stroke-width="19" width="18" x="5" y="109"/>
<polygon fill="#F700CF" stroke="#9CBBB8" stroke-opacity="1" stroke-width="13" points="8.00,73.00 21.00,73.00 14.50,84.26"/>
<polygon fill="#27EE8A" stroke="#41CC00" stroke-opacity="0.3" stroke-width="10" points="0.00,89.00 25.00,89.00 12.50,110.65"/>
<polygon fill="#F700CF" stroke="#41CC00" stroke-opacity="1" stroke-width="22" points="43.00,63.00 56.00,63.00 49.50,74.26"/>
<polygon fill="#F700CF" stroke="#34BBA1" stroke-opacity="0.2" stroke-width="10" points="62.00,55.00 83.00,55.00 72.50,73.19"/>
<polygon fill="#0DDD17" stroke="#0DDD17" stroke-opacity="0.2" stroke-width="18" points="-10.00,112.00 -1.00,112.00 -5.50,119.79"/>
<polygon fill="#34BBA1" stroke="#D03373" stroke-opacity="1" stroke-width="21" points="38.00,102.00 67.00,102.00 52.50,127.11"/>
<polygon fill="#41CC00" stroke="#0DDD17" stroke-opacity="1" stroke-width="17" points="36.00,58.00 45.00,58.00 40.50,65.79"/>
<circle fill="#F777CF" stroke="#41CC00" stroke-opacity="1" stroke-width="20" r="12.50" cx="-4.50" cy="104.50"/>
<polygon fill="#34BBA1" stroke="#9CBBB8" stroke-opacity="1" stroke-width="16" points="63.00,96.00 72.00,96.00 67.50,103.79"/>
<polygon fill="#9CBBB8" stroke="#41CC00" stroke-opacity="0.2" stroke-width="15" points="66.00,-2.00 83.00,-2.00 74.50,12.72"/>
<polygon fill="#C3558A" stroke="#C3558A" stroke-opacity="1" stroke-width="17" points="-3.00,13.00 14.00,13.00 5.50,27.72"/>
<polygon fill="#F777CF" stroke="#D03373" stroke-opacity="0.2" stroke-width="10" points="30.00,-12.00 35.00,-12.00 32.50,-7.67"/>
<circle fill="#0DDD17" stroke="#34BBA1" stroke-opacity="0.2" stroke-width="16" r="9.00" cx="6.00" cy="85.00"/>
<rect fill="#41CC00" height="21" stroke="#41CC00" stroke-opacity="0.3" stroke-width="17" width="18" x="-7" y="58"/>
<polygon fill="#D03373" stroke="#D03373" stroke-opacity="0.3" stroke-width="15" points="-16.00,105.00 5.00,105.00 -5.50,123.19"/>
<rect fill="#F700CF" height="5" stroke="#41CC00" stroke-opacity="1" stroke-width="22" width="18" x="4" y="45"/>
<polygon fill="#3499A1" stroke="#C3558A" stroke-opacity="1" stroke-width="22" points="24.00,105.00 57.00,105.00 40.50,133.58"/>
<circle fill="#9CBBB8" stroke="#C3558A" stroke-opacity="0.2" stroke-width="14" r="12.50" cx="89.50" cy="10.50"/>
<circle fill="#27EE8A" stroke="#0DDD17" stroke-opacity="0.2" stroke-width="21" r="12.50" cx="5.50" cy="46.50"/>
<polygon fill="#75558A" stroke="#34BBA1" stroke-opacity="0.2" stroke-width="25" points="58.00,89.00 87.00,89.00 72.50,114.11"/>
<rect fill="#3499A1" height="29" stroke="#D03373" stroke-opacity="1" stroke-width="13" width="8" x="48" y="14"/>
<polygon fill="#9CBBB8" stroke="#D03373" stroke-opacity="0.3" stroke-width="10" points="-15.00,104.00 10.00,104.00 -2.50,125.65"/>
<polygon fill="#9CBBB8" stroke="#C3558A" stroke-opacity="0.3" stroke-width="13" points="30.00,77.00 63.00,77.00 46.50,105.58"/>
<polygon fill="#1A228A" stroke="#0DDD17" stroke-opacity="0.2" stroke-width="23" points="80.00,58.00 97.00,58.00 88.50,72.72"/>
<rect fill="#F777CF" height="25" stroke="#D03373" stroke-opacity="1" stroke-width="13" width="8" x="61" y="108"/>
<circle fill="#41CC00" stroke="#34BBA1" stroke-opacity="0.2" stroke-width="24" r="16.50" cx="47.50" cy="90.50"/>
<rect fill="#41CC00" height="9" stroke="#27EE8A" stroke-opacity="0.2" stroke-width="15" width="13" x="-7" y="41"/>
<circle fill="#34BBA1" stroke="#34BBA1" stroke-opacity="0.3" stroke-width="16" r="16.50" cx="96.50" cy="85.50"/>
<rect fill="#0DDD17" height="13" stroke="#41CC00" stroke-opacity="1" stroke-width="13" width="13" x="72" y="25"/>
<polygon fill="#0DDD17" stroke="#C3558A" stroke-opacity="0.2" stroke-width="11" points="6.00,64.00 39.00,64.00 22.50,92.58"/>
<rect fill="#F777CF" height="17" stroke="#41CC00" stroke-opacity="1" stroke-width="16" width="13" x="-11" y="48"/>
<circle fill="#1A228A" stroke="#0DDD17" stroke-opacity="0.2" stroke-width="20" r="10.50" cx="70.50" cy="112.50"/>
<polygon fill="#F777CF" stroke="#27EE8A" stroke-opacity="0.2" stroke-width="19" points="-14.00,34.00 19.00,34.00 2.50,62.58"/>
<polygon fill="#F777CF" stroke="#0DDD17" stroke-opacity="0.3" stroke-width="19" points="17.00,46.00 50.00,46.00 33.50,74.58"/>
<polygon fill="#41CC00" stroke="#C3558A" stroke-opacity="0.2" stroke-width="10" points="68.00,37.00 101.00,37.00 84.50,65.58"/>
<circle fill="#34BBA1" stroke="#D03373" stroke-opacity="0.2" stroke-width="23" r="10.50" cx="58.50" cy="82.50"/>
<polygon fill="#34BBA1" stroke="#27EE8A" stroke-opacity="1" stroke-width="11" points="71.00,44.00 88.00,44.00 79.50,58.72"/>
<circle fill="#C3558A" stroke="#27EE8A" stroke-opacity="0.3" stroke-width="10" r="10.50" cx="65.50" cy="-7.50"/>
<rect fill="#C3558A" height="21" stroke="#41CC00" stroke-opacity="1" stroke-width="12" width="3" x="66" y="32"/>
<rect fill="#D03373" height="17" stroke="#C3558A" stroke-opacity="1" stroke-width="10" width="8" x="70" y="15"/>
<rect fill="#75558A" height="13" stroke="#41CC00" stroke-opacity="0.3" stroke-width="17" width="8" x="22" y="86"/>
<circle fill="#41CC00" stroke="#41CC00" stroke-opacity="0.3" stroke-width="23" r="4.50" cx="78.50" cy="72.50"/>
<rect fill="#34BBA1" height="29" stroke="#0DDD17" stroke-opacity="0.2" stroke-width="15" width="3" x="60" y="10"/>
<polygon fill="#9CBBB8" stroke="#41CC00" stroke-opacity="0.3" stroke-width="25" points="45.00,31.00 58.00,31.00 51.50,42.26"/>
<circle fill="#9CBBB8" stroke="#D03373" stroke-opacity="1" stroke-width="20" r="14.50" cx="-4.50" cy="71.50"/>
<rect fill="#3499A1" height="21" stroke="#34BBA1" stroke-opacity="1" stroke-width="17" width="3" x="8" y="59"/>
<polygon fill="#3499A1" stroke="#C3558A" stroke-opacity="0.2" stroke-width="13" points="43.00,37.00 72.00,37.00 57.50,62.11"/>
<rect fill="#34BBA1" height="9" stroke="#9CBBB8" stroke-opacity="0.3" stroke-width="15" width="13" x="65" y="-19"/>
<polygon fill="#F777CF" stroke="#C3558A" stroke-opacity="0.2" stroke-width="25" points="-15.00,101.00 10.00,101.00 -2.50,122.65"/>
<rect fill="#0DDD17" height="13" stroke="#0DDD17" stroke-opacity="0.2" stroke-width="24" width="8" x="64" y="98"/>
<polygon fill="#F700CF" stroke="#34BBA1" stroke-opacity="0.2" stroke-width="10" points="2.00,94.00 27.00,94.00 14.50,115.65"/>
<polygon fill="#F700CF" stroke="#C3558A" stroke-opacity="0.3" stroke-width="14" points="75.00,93.00 108.00,93.00 91.50,121.58"/>
<circle fill="#1A228A" stroke="#9CBBB8" stroke-opacity="0.3" stroke-width="25" r="12.50" cx="68.50" cy="16.50"/>
<rect fill="#F700CF" height="13" stroke="#0DDD17" stroke-opacity="0.2" stroke-width="13" width="8" x="28" y="39"/>
<polygon fill="#34BBA1" stroke="#34BBA1" stroke-opacity="0.3" stroke-width="13" points="69.00,85.00 94.00,85.00 81.50,106.65"/>
<circle fill="#41CC00" stroke="#34BBA1" stroke-opacity="1" stroke-width="22" r="10.50" cx="36.50" cy="10.50"/>
<polygon fill="#34BBA1" stroke="#9CBBB8" stroke-opacity="0.2" stroke-width="15" points="46.00,97.00 67.00,97.00 56.50,115.19"/>
<polygon fill="#D03373" stroke="#9CBBB8" stroke-opacity="0.3" stroke-width="11" points="28.00,20.00 61.00,20.00 44.50,48.58"/>
<circle fill="#27EE8A" stroke="#0DDD17" stroke-opacity="0.2" stroke-width="23" r="12.50" cx="86.50" cy="2.50"/>
<polygon fill="#41CC00" stroke="#27EE8A" stroke-opacity="0.3" stroke-width="23" points="79.00,87.00 104.00,87.00 91.50,108.65"/>
</svg>