<?xml version="1.0" standalone="no"?>
<svg xmlns="http://www.w3.org/2000/svg" xmlns:xlink="http://www.w3.org/1999/xlink/" width="20in" height="12in" viewBox="0 0 100 60" version="1.2">

  <desc>Picture by J. Wendt</desc>
  <!-- START Generator PARAMETERS in Json -->
  <desc>{"params":{"structure":"RANDOM","nr_of_figures":96,"rows":12,"columns":6,"x":["ri",[-20,80]],"y":["ri",[-20,120]],"height":["rr",[5,34,4]],"width":["rr",[3,21,5]],"palette":["#008873","#0DBB73","#EA1173","#DD555C","#1A115C","#4E558A","#D00073","#F7AA17","#EA0073","#1ADDCF","#C344E6","#B699B8"],"figures":["rc",[["polygon","circle","rect"]]],"fill":["rc",[["#008873","#0DBB73","#EA1173","#DD555C","#1A115C","#4E558A","#D00073","#F7AA17","#EA0073","#1ADDCF","#C344E6","#B699B8"]]],"stroke":["rc",[["#008873","#0DBB73","#EA1173","#DD555C","#1A115C","#4E558A","#D00073","#F7AA17","#EA0073","#1ADDCF","#C344E6","#B699B8"]]],"stroke-opacity":["rc",[[0.2,0.3,1]]],"stroke-width":["ri",[10,25]]}}</desc>
  <!-- END Generator PARAMETERS in Json -->

  <!-- Show outline of canvas using 'rect' element -->
  <rect id="bg-00" x="0" y="0" width="100" height="60" fill="#0DBB73" opacity=".3" stroke="#32A0A5" stroke-opacity=".3" stroke-width="0.1"/>

<polygon fill="#0DBB73" stroke="#0DBB73" stroke-opacity="1" stroke-width="25" points="47.00,38.00 68.00,38.00 57.50,56.19"/>
<polygon fill="#0DBB73" stroke="#008873" stroke-opacity="0.3" stroke-width="16" points="61.00,0.00 78.00,0.00 69.50,14.72"/>
<circle fill="#EA0073" stroke="#EA0073" stroke-opacity="1" stroke-width="22" r="6.50" cx="-6.50" cy="126.50"/>
<circle fill="#DD555C" stroke="#EA0073" stroke-opacity="0.3" stroke-width="13" r="16.50" cx="41.50" cy="36.50"/>
<rect fill="#DD555C" height="9" stroke="#D00073" stroke-opacity="1" stroke-width="14" width="8" x="74" y="79"/>
<circle fill="#B699B8" stroke="#F7AA17" stroke-opacity="0.2" stroke-width="18" r="10.50" cx="-7.50" cy="92.50"/>
<circle fill="#DD555C" stroke="#0DBB73" stroke-opacity="0.3" stroke-width="21" r="9.00" cx="18.00" cy="55.00"/>
<rect fill="#1A115C" height="29" stroke="#1A115C" stroke-opacity="0.2" stroke-width="11" width="3" x="-5" y="73"/>
<rect fill="#4E558A" height="5" stroke="#4E558A" stroke-opacity="1" stroke-width="25" width="8" x="78" y="8"/>
<polygon fill="#DD555C" stroke="#EA0073" stroke-opacity="0.2" stroke-width="13" points="-12.00,58.00 -3.00,58.00 -7.50,65.79"/>
<circle fill="#B699B8" stroke="#008873" stroke-opacity="1" stroke-width="12" r="8.50" cx="34.50" cy="2.50"/>
<polygon fill="#F7AA17" stroke="#D00073" stroke-opacity="1" stroke-width="13" points="31.00,115.00 64.00,115.00 47.50,143.58"/>
<circle fill="#EA0073" stroke="#4E558A" stroke-opacity="0.2" stroke-width="15" r="2.50" cx="29.50" cy="15.50"/>
<rect fill="#D00073" height="29" stroke="#0DBB73" stroke-opacity="0.3" stroke-width="24" width="13" x="59" y="49"/>
<circle fill="#D00073" stroke="#EA1173" stroke-opacity="0.2" stroke-width="10" r="6.50" cx="42.50" cy="38.50"/>
<polygon fill="#EA0073" stroke="#D00073" stroke-opacity="0.2" stroke-width="14" points="17.00,79.00 38.00,79.00 27.50,97.19"/>
<rect fill="#008873" height="29" stroke="#4E558A" stroke-opacity="0.2" stroke-width="21" width="3" x="77" y="42"/>
<rect fill="#DD555C" height="5" stroke="#1A115C" stroke-opacity="0.3" stroke-width="17" width="13" x="59" y="24"/>
<circle fill="#C344E6" stroke="#B699B8" stroke-opacity="0.2" stroke-width="19" r="14.50" cx="66.50" cy="25.50"/>
<polygon fill="#DD555C" stroke="#D00073" stroke-opacity="0.2" stroke-width="18" points="44.00,10.00 65.00,10.00 54.50,28.19"/>
<polygon fill="#D00073" stroke="#C344E6" stroke-opacity="0.2" stroke-width="17" points="7.00,78.00 20.00,78.00 13.50,89.26"/>
<circle fill="#0DBB73" stroke="#EA0073" stroke-opacity="1" stroke-width="12" r="12.50" cx="60.50" cy="13.50"/>
<circle fill="#1A115C" stroke="#C344E6" stroke-opacity="1" stroke-width="25" r="16.50" cx="92.50" cy="27.50"/>
<circle fill="#1ADDCF" stroke="#1A115C" stroke-opacity="0.2" stroke-width="15" r="6.50" cx="52.50" cy="80.50"/>
<rect fill="#B699B8" height="5" stroke="#4E558A" stroke-opacity="1" stroke-width="19" width="13" x="16" y="73"/>
<rect fill="#EA0073" height="21" stroke="#DD555C" stroke-opacity="0.2" stroke-width="22" width="3" x="52" y="41"/>
<polygon fill="#D00073" stroke="#0DBB73" stroke-opacity="0.3" stroke-width="12" points="-13.00,77.00 20.00,77.00 3.50,105.58"/>
<circle fill="#008873" stroke="#4E558A" stroke-opacity="1" stroke-width="18" r="6.50" cx="65.50" cy="21.50"/>
<circle fill="#DD555C" stroke="#F7AA17" stroke-opacity="0.3" stroke-width="24" r="16.50" cx="68.50" cy="57.50"/>
<polygon fill="#F7AA17" stroke="#0DBB73" stroke-opacity="1" stroke-width="12" points="6.00,46.00 31.00,46.00 18.50,67.65"/>
<circle fill="#008873" stroke="#B699B8" stroke-opacity="0.2" stroke-width="20" r="9.00" cx="80.00" cy="34.00"/>
<polygon fill="#1ADDCF" stroke="#1ADDCF" stroke-opacity="0.3" stroke-width="21" points="44.00,28.00 53.00,28.00 48.50,35.79"/>
<rect fill="#4E558A" height="21" stroke="#008873" stroke-opacity="1" stroke-width="21" width="18" x="56" y="93"/>
<polygon fill="#EA1173" stroke="#C344E6" stroke-opacity="1" stroke-width="10" points="24.00,32.00 29.00,32.00 26.50,36.33"/>
<polygon fill="#B699B8" stroke="#F7AA17" stroke-opacity="1" stroke-width="19" points="19.00,106.00 44.00,106.00 31.50,127.65"/>
<rect fill="#DD555C" height="33" stroke="#0DBB73" stroke-opacity="0.2" stroke-width="18" width="13" x="25" y="107"/>
<polygon fill="#4E558A" stroke="#4E558A" stroke-opacity="1" stroke-width="14" points="0.00,65.00 17.00,65.00 8.50,79.72"/>
<circle fill="#DD555C" stroke="#F7AA17" stroke-opacity="0.3" stroke-width="13" r="16.50" cx="33.50" cy="63.50"/>
<circle fill="#0DBB73" stroke="#1A115C" stroke-opacity="0.3" stroke-width="18" r="6.50" cx="47.50" cy="85.50"/>
<rect fill="#F7AA17" height="5" stroke="#DD555C" stroke-opacity="0.2" stroke-width="11" width="13" x="7" y="107"/>
<circle fill="#1A115C" stroke="#4E558A" stroke-opacity="0.3" stroke-width="24" r="16.50" cx="69.50" cy="122.50"/>
<rect fill="#F7AA17" height="13" stroke="#C344E6" stroke-opacity="1" stroke-width="16" width="13" x="26" y="44"/>
<polygon fill="#4E558A" stroke="#0DBB73" stroke-opacity="0.2" stroke-width="12" points="71.00,109.00 96.00,109.00 83.50,130.65"/>
<circle fill="#1A115C" stroke="#B699B8" stroke-opacity="0.2" stroke-width="22" r="4.50" cx="-3.50" cy="114.50"/>
<polygon fill="#EA1173" stroke="#EA1173" stroke-opacity="0.3" stroke-width="25" points="48.00,108.00 81.00,108.00 64.50,136.58"/>
<circle fill="#DD555C" stroke="#EA1173" stroke-opacity="0.3" stroke-width="21" r="12.50" cx="75.50" cy="34.50"/>
<rect fill="#4E558A" height="29" stroke="#DD555C" stroke-opacity="0.3" stroke-width="16" width="8" x="26" y="79"/>
<rect fill="#008873" height="17" stroke="#B699B8" stroke-opacity="0.2" stroke-width="24" width="13" x="33" y="23"/>
<circle fill="#008873" stroke="#DD555C" stroke-opacity="0.3" stroke-width="22" r="2.50" cx="9.50" cy="-7.50"/>
<circle fill="#1ADDCF" stroke="#F7AA17" stroke-opacity="1" stroke-width="16" r="10.50" cx="21.50" cy="-1.50"/>
<circle fill="#EA0073" stroke="#EA1173" stroke-opacity="0.3" stroke-width="21" r="10.50" cx="-0.50" cy="42.50"/>
<rect fill="#1ADDCF" height="29" stroke="#D00073" stroke-opacity="0.2" stroke-width="16" width="3" x="9" y="68"/>
<circle fill="#0DBB73" stroke="#4E558A" stroke-opacity="1" stroke-width="11" r="16.50" cx="81.50" cy="-1.50"/>
<polygon fill="#4E558A" stroke="#B699B8" stroke-opacity="0.2" stroke-width="10" points="4.00,56.00 37.00,56.00 20.50,84.58"/>
<polygon fill="#1ADDCF" stroke="#F7AA17" stroke-opacity="1" stroke-width="10" points="19.00,119.00 40.00,119.00 29.50,137.19"/>
<circle fill="#008873" stroke="#D00073" stroke-opacity="0.3" stroke-width="17" r="8.50" cx="42.50" cy="41.50"/>
<circle fill="#C344E6" stroke="#008873" stroke-opacity="0.3" stroke-width="10" r="16.50" cx="77.50" cy="111.50"/>
<rect fill="#0DBB73" height="25" stroke="#D00073" stroke-opacity="0.2" stroke-width="13" width="18" x="-2" y="83"/>
<rect fill="#C344E6" height="17" stroke="#F7AA17" stroke-opacity="0.2" stroke-width="24" width="8" x="1" y="12"/>
<circle fill="#EA0073" stroke="#DD555C" stroke-opacity="0.3" stroke-width="11" r="8.50" cx="59.50" cy="116.50"/>
<circle fill="#0DBB73" stroke="#EA1173" stroke-opacity="0.2" stroke-width="19" r="4.00" cx="49.00" cy="72.00"/>
<polygon fill="#4E558A" stroke="#DD555C" stroke-opacity="1" stroke-width="14" points="-14.00,69.00 3.00,69.00 -5.50,83.72"/>
<polygon fill="#C344E6" stroke="#DD555C" stroke-opacity="0.3" stroke-width="24" points="-10.00,9.00 23.00,9.00 6.50,37.58"/>
<rect fill="#F7AA17" height="25" stroke="#D00073" stroke-opacity="0.2" stroke-width="23" width="3" x="44" y="-12"/>
<polygon fill="#EA0073" stroke="#4E558A" stroke-opacity="0.3" stroke-width="18" points="20.00,1.00 49.00,1.00 34.50,26.11"/>
<rect fill="#008873" height="17" stroke="#1A115C" stroke-opacity="0.3" stroke-width="21" width="3" x="59" y="105"/>
<circle fill="#4E558A" stroke="#D00073" stroke-opacity="1" stroke-width="10" r="12.50" cx="30.50" cy="46.50"/>
<polygon fill="#DD555C" stroke="#1ADDCF" stroke-opacity="0.2" stroke-width="15" points="32.00,41.00 65.00,41.00 48.50,69.58"/>
<rect fill="#0DBB73" height="29" stroke="#EA1173" stroke-opacity="0.2" stroke-width="20" width="8" x="14" y="65"/>
<circle fill="#4E558A" stroke="#EA0073" stroke-opacity="0.2" stroke-width="13" r="14.50" cx="10.50" cy="67.50"/>
<circle fill="#EA0073" stroke="#4E558A" stroke-opacity="0.2" stroke-width="14" r="16.50" cx="56.50" cy="99.50"/>
<circle fill="#EA0073" stroke="#C344E6" stroke-opacity="1" stroke-width="22" r="9.00" cx="-10.00" cy="86.00"/>
<circle fill="#C344E6" stroke="#008873" stroke-opacity="0.3" stroke-width="13" r="6.50" cx="80.50" cy="90.50"/>
<rect fill="#4E558A" height="33" stroke="#008873" stroke-opacity="0.3" stroke-width="14" width="3" x="65" y="117"/>
<polygon fill="#1A115C" stroke="#B699B8" stroke-opacity="0.2" stroke-width="25" points="69.00,9.00 82.00,9.00 75.50,20.26"/>
<rect fill="#1ADDCF" height="33" stroke="#B699B8" stroke-opacity="0.2" stroke-width="23" width="8" x="-11" y="-9"/>
<rect fill="#EA1173" height="33" stroke="#1A115C" stroke-opacity="0.3" stroke-width="22" width="13" x="40" y="114"/>
<polygon fill="#DD555C" stroke="#1A115C" stroke-opacity="0.3" stroke-width="10" points="15.00,85.00 24.00,85.00 19.50,92.79"/>
<circle fill="#EA1173" stroke="#4E558A" stroke-opacity="1" stroke-width="10" r="14.50" cx="84.50" cy="58.50"/>
<circle fill="#DD555C" stroke="#EA1173" stroke-opacity="0.3" stroke-width="20" r="6.50" cx="26.50" cy="106.50"/>
<polygon fill="#0DBB73" stroke="#008873" stroke-opacity="1" stroke-width="16" points="-17.00,76.00 16.00,76.00 -0.50,104.58"/>
<circle fill="#EA1173" stroke="#EA0073" stroke-opacity="0.3" stroke-width="14" r="10.50" cx="1.50" cy="14.50"/>
<rect fill="#D00073" height="25" stroke="#EA1173" stroke-opacity="1" stroke-width="10" width="3" x="78" y="27"/>
<rect fill="#0DBB73" height="25" stroke="#0DBB73" stroke-opacity="1" stroke-width="22" width="3" x="80" y="106"/>
<polygon fill="#1A115C" stroke="#C344E6" stroke-opacity="1" stroke-width="21" points="21.00,43.00 38.00,43.00 29.50,57.72"/>
<circle fill="#0DBB73" stroke="#1A115C" stroke-opacity="0.2" stroke-width="20" r="9.00" cx="0.00" cy="16.00"/>
<polygon fill="#F7AA17" stroke="#EA0073" stroke-opacity="1" stroke-width="22" points="14.00,116.00 31.00,116.00 22.50,130.72"/>
<circle fill="#D00073" stroke="#B699B8" stroke-opacity="0.3" stroke-width="22" r="16.50" cx="30.50" cy="23.50"/>
<polygon fill="#4E558A" stroke="#0DBB73" stroke-opacity="1" stroke-width="14" points="75.00,77.00 108.00,77.00 91.50,105.58"/>
<circle fill="#4E558A" stroke="#EA0073" stroke-opacity="1" stroke-width="11" r="16.50" cx="88.50" cy="103.50"/>
<polygon fill="#B699B8" stroke="#F7AA17" stroke-opacity="1" stroke-width="21" points="51.00,17.00 72.00,17.00 61.50,35.19"/>
<rect fill="#DD555C" height="25" stroke="#C344E6" stroke-opacity="0.3" stroke-width="14" width="3" x="36" y="23"/>
<circle fill="#B699B8" stroke="#B699B8" stroke-opacity="0.2" stroke-width="10" r="9.00" cx="88.00" cy="70.00"/>
<rect fill="#F7AA17" height="21" stroke="#008873" stroke-opacity="0.3" stroke-width="20" width="8" x="27" y="-9"/>
<polygon fill="#EA1173" stroke="#D00073" stroke-opacity="0.2" stroke-width="20" points="55.00,109.00 64.00,109.00 59.50,116.79"/>
<circle fill="#1ADDCF" stroke="#EA1173" stroke-opacity="0.2" stroke-width="14" r="8.50" cx="33.50" cy="77.50"/>
</svg>