<?xml version="1.0" standalone="no"?>
<svg xmlns="http://www.w3.org/2000/svg" xmlns:xlink="http://www.w3.org/1999/xlink/" width="20in" height="12in" viewBox="0 0 100 60" version="1.2">

  <desc>Picture by J. Wendt</desc>
  <!-- START Generator PARAMETERS in Json -->
  <desc>{"params":{"structure":"RANDOM","nr_of_figures":96,"rows":12,"columns":6,"x":["ri",[-20,80]],"y":["ri",[-20,120]],"height":["rr",[5,34,4]],"width":["rr",[3,21,5]],"palette":["#4E4400","#EA9917","#D0AAE6","#1A3317","#4EEE17","#C36600","#A988A1","#1A55A1","#A9665C","#4199A1","#6833B8","#75DD73"],"figures":["rc",[["polygon","circle","rect"]]],"fill":["rc",[["#4E4400","#EA9917","#D0AAE6","#1A3317","#4EEE17","#C36600","#A988A1","#1A55A1","#A9665C","#4199A1","#6833B8","#75DD73"]]],"stroke":["rc",[["#4E4400","#EA9917","#D0AAE6","#1A3317","#4EEE17","#C36600","#A988A1","#1A55A1","#A9665C","#4199A1","#6833B8","#75DD73"]]],"stroke-opacity":["rc",[[0.2,0.3,1]]],"stroke-width":["ri",[10,25]]}}</desc>
  <!-- END Generator PARAMETERS in Json -->

  <!-- Show outline of canvas using 'rect' element -->
  <rect id="bg-00" x="0" y="0" width="100" height="60" fill="#1A3317" opacity=".3" stroke="#32A0A5" stroke-opacity=".3" stroke-width="0.1"/>

<polygon fill="#4EEE17" stroke="#1A55A1" stroke-opacity="1" stroke-width="21" points="-1.00,32.00 16.00,32.00 7.50,46.72"/>
<rect fill="#75DD73" height="21" stroke="#4E4400" stroke-opacity="1" stroke-width="12" width="13" x="40" y="-8"/>
<circle fill="#1A3317" stroke="#A988A1" stroke-opacity="0.2" stroke-width="17" r="4.00" cx="38.00" cy="19.00"/>
<rect fill="#A988A1" height="21" stroke="#4199A1" stroke-opacity="1" stroke-width="17" width="13" x="33" y="34"/>
<circle fill="#D0AAE6" stroke="#75DD73" stroke-opacity="1" stroke-width="18" r="6.50" cx="44.50" cy="93.50"/>
<rect fill="#4EEE17" height="21" stroke="#4E4400" stroke-opacity="0.3" stroke-width="15" width="3" x="59" y="9"/>
<polygon fill="#1A3317" stroke="#75DD73" stroke-opacity="0.3" stroke-width="25" points="-12.00,117.00 13.00,117.00 0.50,138.65"/>
<circle fill="#C36600" stroke="#4E4400" stroke-opacity="0.2" stroke-width="18" r="12.50" cx="45.50" cy="57.50"/>
<rect fill="#A988A1" height="21" stroke="#4EEE17" stroke-opacity="0.2" stroke-width="11" width="8" x="6" y="-15"/>
<rect fill="#4EEE17" height="21" stroke="#1A55A1" stroke-opacity="0.2" stroke-width="23" width="13" x="37" y="90"/>
<polygon fill="#4199A1" stroke="#A988A1" stroke-opacity="0.3" stroke-width="15" points="18.00,105.00 31.00,105.00 24.50,116.26"/>
<polygon fill="#A9665C" stroke="#6833B8" stroke-opacity="0.2" stroke-width="15" points="-3.00,16.00 26.00,16.00 11.50,41.11"/>
<rect fill="#4E4400" height="21" stroke="#C36600" stroke-opacity="0.2" stroke-width="11" width="8" x="52" y="119"/>
<circle fill="#C36600" stroke="#75DD73" stroke-opacity="1" stroke-width="23" r="12.50" cx="11.50" cy="66.50"/>
<polygon fill="#1A3317" stroke="#A9665C" stroke-opacity="0.2" stroke-width="15" points="76.00,103.00 97.00,103.00 86.50,121.19"/>
<rect fill="#1A3317" height="9" stroke="#C36600" stroke-opacity="1" stroke-width="11" width="18" x="24" y="73"/>
<rect fill="#A9665C" height="9" stroke="#4199A1" stroke-opacity="0.3" stroke-width="24" width="8" x="55" y="41"/>
<circle fill="#A988A1" stroke="#4199A1" stroke-opacity="0.3" stroke-width="19" r="6.50" cx="-4.50" cy="30.50"/>
<polygon fill="#EA9917" stroke="#EA9917" stroke-opacity="0.3" stroke-width="24" points="52.00,66.00 61.00,66.00 56.50,73.79"/>
<polygon fill="#1A3317" stroke="#D0AAE6" stroke-opacity="0.2" stroke-width="23" points="-18.00,87.00 7.00,87.00 -5.50,108.65"/>
<polygon fill="#4199A1" stroke="#4199A1" stroke-opacity="0.2" stroke-width="24" points="27.00,-4.00 60.00,-4.00 43.50,24.58"/>
<polygon fill="#1A55A1" stroke="#4199A1" stroke-opacity="1" stroke-width="19" points="14.00,90.00 39.00,90.00 26.50,111.65"/>
<circle fill="#4EEE17" stroke="#A9665C" stroke-opacity="0.3" stroke-width="14" r="10.50" cx="44.50" cy="59.50"/>
<rect fill="#1A3317" height="33" stroke="#1A3317" stroke-opacity="1" stroke-width="22" width="18" x="28" y="99"/>
<circle fill="#A9665C" stroke="#C36600" stroke-opacity="0.3" stroke-width="12" r="10.50" cx="87.50" cy="18.50"/>
<rect fill="#EA9917" height="29" stroke="#A9665C" stroke-opacity="0.2" stroke-width="12" width="3" x="25" y="70"/>
<polygon fill="#75DD73" stroke="#A9665C" stroke-opacity="0.3" stroke-width="18" points="71.00,115.00 96.00,115.00 83.50,136.65"/>
<polygon fill="#4EEE17" stroke="#4E4400" stroke-opacity="0.3" stroke-width="15" points="43.00,65.00 72.00,65.00 57.50,90.11"/>
<polygon fill="#6833B8" stroke="#1A55A1" stroke-opacity="0.2" stroke-width="17" points="10.00,70.00 43.00,70.00 26.50,98.58"/>
<rect fill="#1A55A1" height="33" stroke="#4199A1" stroke-opacity="0.2" stroke-width="17" width="8" x="36" y="112"/>
<rect fill="#4EEE17" height="9" stroke="#1A3317" stroke-opacity="0.2" stroke-width="12" width="8" x="76" y="76"/>
<circle fill="#4EEE17" stroke="#4199A1" stroke-opacity="1" stroke-width="15" r="6.50" cx="60.50" cy="122.50"/>
<rect fill="#A988A1" height="9" stroke="#A988A1" stroke-opacity="1" stroke-width="20" width="13" x="0" y="69"/>
<circle fill="#D0AAE6" stroke="#A9665C" stroke-opacity="0.2" stroke-width="18" r="16.50" cx="19.50" cy="133.50"/>
<circle fill="#A9665C" stroke="#D0AAE6" stroke-opacity="0.2" stroke-width="16" r="12.50" cx="8.50" cy="5.50"/>
<circle fill="#6833B8" stroke="#6833B8" stroke-opacity="1" stroke-width="13" r="14.50" cx="11.50" cy="24.50"/>
<circle fill="#4EEE17" stroke="#A9665C" stroke-opacity="0.3" stroke-width="19" r="16.50" cx="9.50" cy="18.50"/>
<polygon fill="#6833B8" stroke="#A9665C" stroke-opacity="1" stroke-width="25" points="51.00,59.00 84.00,59.00 67.50,87.58"/>
<circle fill="#4E4400" stroke="#1A3317" stroke-opacity="0.2" stroke-width="24" r="10.50" cx="13.50" cy="19.50"/>
<polygon fill="#4199A1" stroke="#4EEE17" stroke-opacity="0.2" stroke-width="17" points="36.00,59.00 69.00,59.00 52.50,87.58"/>
<circle fill="#A988A1" stroke="#A988A1" stroke-opacity="1" stroke-width="13" r="8.50" cx="61.50" cy="113.50"/>
<polygon fill="#1A3317" stroke="#6833B8" stroke-opacity="1" stroke-width="13" points="59.00,35.00 80.00,35.00 69.50,53.19"/>
<rect fill="#A9665C" height="5" stroke="#75DD73" stroke-opacity="0.2" stroke-width="12" width="3" x="79" y="22"/>
<polygon fill="#EA9917" stroke="#A988A1" stroke-opacity="1" stroke-width="18" points="-1.00,11.00 8.00,11.00 3.50,18.79"/>
<rect fill="#4E4400" height="9" stroke="#A9665C" stroke-opacity="1" stroke-width="17" width="3" x="51" y="54"/>
<circle fill="#A9665C" stroke="#D0AAE6" stroke-opacity="0.2" stroke-width="24" r="8.50" cx="74.50" cy="124.50"/>
<circle fill="#A988A1" stroke="#1A3317" stroke-opacity="0.3" stroke-width="24" r="16.50" cx="54.50" cy="130.50"/>
<polygon fill="#4E4400" stroke="#C36600" stroke-opacity="0.3" stroke-width="16" points="24.00,93.00 41.00,93.00 32.50,107.72"/>
<rect fill="#75DD73" height="29" stroke="#A9665C" stroke-opacity="1" stroke-width="14" width="8" x="-11" y="60"/>
<polygon fill="#EA9917" stroke="#EA9917" stroke-opacity="0.3" stroke-width="19" points="59.00,93.00 72.00,93.00 65.50,104.26"/>
<rect fill="#D0AAE6" height="29" stroke="#1A3317" stroke-opacity="1" stroke-width="16" width="13" x="17" y="-5"/>
<polygon fill="#A988A1" stroke="#4EEE17" stroke-opacity="0.3" stroke-width="16" points="13.00,42.00 42.00,42.00 27.50,67.11"/>
<polygon fill="#A9665C" stroke="#A9665C" stroke-opacity="0.3" stroke-width="13" points="16.00,111.00 41.00,111.00 28.50,132.65"/>
<rect fill="#4E4400" height="33" stroke="#6833B8" stroke-opacity="0.2" stroke-width="20" width="13" x="64" y="62"/>
<circle fill="#75DD73" stroke="#C36600" stroke-opacity="0.2" stroke-width="21" r="6.50" cx="63.50" cy="29.50"/>
<circle fill="#EA9917" stroke="#6833B8" stroke-opacity="1" stroke-width="24" r="16.50" cx="-0.50" cy="-0.50"/>
<polygon fill="#C36600" stroke="#6833B8" stroke-opacity="1" stroke-width="20" points="-20.00,45.00 -7.00,45.00 -13.50,56.26"/>
<circle fill="#1A55A1" stroke="#4E4400" stroke-opacity="1" stroke-width="12" r="9.00" cx="65.00" cy="92.00"/>
<polygon fill="#A988A1" stroke="#1A55A1" stroke-opacity="1" stroke-width="21" points="27.00,-8.00 48.00,-8.00 37.50,10.19"/>
<circle fill="#A9665C" stroke="#A9665C" stroke-opacity="0.3" stroke-width="17" r="16.50" cx="57.50" cy="30.50"/>
<circle fill="#4EEE17" stroke="#D0AAE6" stroke-opacity="0.2" stroke-width="13" r="8.50" cx="38.50" cy="81.50"/>
<circle fill="#4E4400" stroke="#1A55A1" stroke-opacity="0.3" stroke-width="23" r="12.50" cx="34.50" cy="116.50"/>
<rect fill="#4199A1" height="13" stroke="#1A55A1" stroke-opacity="0.3" stroke-width="12" width="3" x="29" y="36"/>
<rect fill="#EA9917" height="5" stroke="#75DD73" stroke-opacity="1" stroke-width="13" width="3" x="37" y="36"/>
<rect fill="#4199A1" height="21" stroke="#75DD73" stroke-opacity="0.2" stroke-width="11" width="18" x="35" y="84"/>
<rect fill="#4E4400" height="25" stroke="#4E4400" stroke-opacity="1" stroke-width="23" width="8" x="47" y="27"/>
<circle fill="#4EEE17" stroke="#A988A1" stroke-opacity="0.2" stroke-width="14" r="14.50" cx="90.50" cy="73.50"/>
<circle fill="#4EEE17" stroke="#4EEE17" stroke-opacity="0.2" stroke-width="25" r="12.50" cx="8.50" cy="0.50"/>
<rect fill="#1A3317" height="13" stroke="#4E4400" stroke-opacity="1" stroke-width="10" width="18" x="37" y="28"/>
<circle fill="#1A3317" stroke="#C36600" stroke-opacity="0.3" stroke-width="10" r="8.50" cx="47.50" cy="28.50"/>
<rect fill="#4199A1" height="21" stroke="#A988A1" stroke-opacity="1" stroke-width="24" width="8" x="-11" y="93"/>
<rect fill="#1A55A1" height="25" stroke="#D0AAE6" stroke-opacity="1" stroke-width="18" width="3" x="64" y="60"/>
<circle fill="#75DD73" stroke="#C36600" stroke-opacity="0.3" stroke-width="18" r="9.00" cx="73.00" cy="44.00"/>
<circle fill="#EA9917" stroke="#D0AAE6" stroke-opacity="0.3" stroke-width="13" r="10.50" cx="89.50" cy="20.50"/>
<rect fill="#4EEE17" height="5" stroke="#4199A1" stroke-opacity="0.2" stroke-width="24" width="13" x="19" y="5"/>
<rect fill="#4E4400" height="21" stroke="#EA9917" stroke-opacity="1" stroke-width="16" width="13" x="51" y="-19"/>
<circle fill="#EA9917" stroke="#4199A1" stroke-opacity="0.2" stroke-width="11" r="10.50" cx="29.50" cy="77.50"/>
<rect fill="#4199A1" height="29" stroke="#4199A1" stroke-opacity="1" stroke-width="21" width="8" x="73" y="35"/>
<rect fill="#A9665C" height="9" stroke="#6833B8" stroke-opacity="0.2" stroke-width="10" width="8" x="-6" y="40"/>
<polygon fill="#A9665C" stroke="#4E4400" stroke-opacity="0.3" stroke-width="25" points="11.00,49.00 36.00,49.00 23.50,70.65"/>
<polygon fill="#6833B8" stroke="#1A55A1" stroke-opacity="0.3" stroke-width="21" points="-5.00,103.00 4.00,103.00 -0.50,110.79"/>
<circle fill="#6833B8" stroke="#EA9917" stroke-opacity="0.3" stroke-width="12" r="16.50" cx="90.50" cy="-1.50"/>
<circle fill="#A9665C" stroke="#C36600" stroke-opacity="0.3" stroke-width="17" r="14.50" cx="78.50" cy="131.50"/>
<polygon fill="#1A3317" stroke="#4199A1" stroke-opacity="0.2" stroke-width="20" points="66.00,117.00 83.00,117.00 74.50,131.72"/>
<circle fill="#1A55A1" stroke="#A9665C" stroke-opacity="1" stroke-width="18" r="10.50" cx="59.50" cy="27.50"/>
<circle fill="#A988A1" stroke="#4199A1" stroke-opacity="0.2" stroke-width="18" r="10.50" cx="8.50" cy="50.50"/>
<circle fill="#4199A1" stroke="#4199A1" stroke-opacity="1" stroke-width="22" r="10.50" cx="7.50" cy="-2.50"/>
<circle fill="#A988A1" stroke="#6833B8" stroke-opacity="1" stroke-width="19" r="10.50" cx="15.50" cy="34.50"/>
<circle fill="#1A3317" stroke="#D0AAE6" stroke-opacity="0.3" stroke-width="10" r="4.00" cx="2.00" cy="-9.00"/>
<rect fill="#6833B8" height="9" stroke="#A9665C" stroke-opacity="1" stroke-width="25" width="13" x="-3" y="36"/>
<polygon fill="#1A55A1" stroke="#4EEE17" stroke-opacity="0.3" stroke-width="17" points="69.00,86.00 102.00,86.00 85.50,114.58"/>
<polygon fill="#EA9917" stroke="#D0AAE6" stroke-opacity="0.2" stroke-width="24" points="31.00,115.00 64.00,115.00 47.50,143.58"/>
<polygon fill="#4E4400" stroke="#D0AAE6" stroke-opacity="1" stroke-width="15" points="-20.00,118.00 1.00,118.00 -9.50,136.19"/>
<polygon fill="#1A3317" stroke="#1A3317" stroke-opacity="0.3" stroke-width="14" points="23.00,14.00 44.00,14.00 33.50,32.19"/>
<circle fill="#4199A1" stroke="#A9665C" stroke-opacity="0.3" stroke-width="14" r="8.50" cx="78.50" cy="105.50"/>
<circle fill="#6833B8" stroke="#A988A1" stroke-opacity="1" stroke-width="25" r="6.50" cx="85.50" cy="88.50"/>
</svg>