<?xml version="1.0" standalone="no"?>
<svg xmlns="http://www.w3.org/2000/svg" xmlns:xlink="http://www.w3.org/1999/xlink/" width="21in" height="21in" viewBox="0 0 100 100" version="1.2">

  <desc>Picture by J. Wendt</desc>
  <!-- START Generator PARAMETERS in Json -->
  <desc>{"params":{"opacity":["rc",[[0.1,0.5,0.7]]],"structure":"RANDOM","palette":["#960A00","#96D237","#E16EA5","#19A000","#32A0DC","#323C6E","#7DA06E","#64D237","#96A037","#640A00","#AFEBDC"],"y":["ri",[-20,120]],"width":["rc",[[11.33,0.59,34,29,123]]],"stroke":["rc",[["#960A00","#96D237","#E16EA5","#19A000","#32A0DC","#323C6E","#7DA06E","#64D237","#96A037","#640A00","#AFEBDC"]]],"columns":12,"figures":["rc",[["polygon","circle","rect","line"]]],"stroke-opacity":["rc",[[0.2,0.3,1]]],"stroke-width":["rc",[[6,4,12]]],"x":["ri",[-20,120]],"nr_of_figures":34,"rows":6,"height":["rc",[[73,0.65,59,34,87]]],"transform":["rc",[[0,90,180,270]]],"fill":["rc",[["#960A00","#96D237","#E16EA5","#19A000","#32A0DC","#323C6E","#7DA06E","#64D237","#96A037","#640A00","#AFEBDC"]]]}}</desc>
  <!-- END Generator PARAMETERS in Json -->

  <!-- Show outline of canvas using 'rect' element -->
  <rect id="bg-00" x="0" y="0" width="100" height="100" fill="#32A0A5" opacity=".3" stroke="#32A0A5" stroke-opacity=".3" stroke-width="0.1"/>

<polygon fill="#7DA06E" opacity="0.1" stroke="#323C6E" stroke-opacity="0.2" stroke-width="12" transform="rotate(0, 123.5, 42.5)" points="62.00,13.00 121.00,13.00 91.50,64.10"/>
<line fill="#960A00" opacity="0.7" stroke="#19A000" stroke-opacity="1" stroke-width="4" x1="83" x2="45" y1="21" y2="21"/>
<line fill="#640A00" opacity="0.5" stroke="#19A000" stroke-opacity="0.2" stroke-width="4" x1="57" x2="57" y1="44" y2="44"/>
<polygon fill="#E16EA5" opacity="0.1" stroke="#32A0DC" stroke-opacity="0.3" stroke-width="4" transform="rotate(270, 70.5, 55.5)" points="56.00,26.00 115.00,26.00 85.50,77.10"/>
<rect fill="#19A000" height="87" opacity="0.1" stroke="#96D237" stroke-opacity="0.2" stroke-width="12" transform="rotate(180, 160.5, 79.5)" width="123" x="99" y="36"/>
<circle fill="#323C6E" opacity="0.5" stroke="#19A000" stroke-opacity="1" stroke-width="4" r="36.50" cx="51.50" cy="148.50"/>
<line fill="#E16EA5" opacity="0.7" stroke="#960A00" stroke-opacity="1" stroke-width="4" x1="45" x2="25" y1="67" y2="67"/>
<line fill="#96A037" opacity="0.5" stroke="#E16EA5" stroke-opacity="0.3" stroke-width="12" x1="45" x2="27" y1="90" y2="90"/>
<rect fill="#323C6E" height="0.65" opacity="0.1" stroke="#960A00" stroke-opacity="1" stroke-width="12" transform="rotate(270, 1.295, 39.325)" width="0.59" x="1" y="39"/>
<rect fill="#AFEBDC" height="87" opacity="0.5" stroke="#96A037" stroke-opacity="0.2" stroke-width="12" transform="rotate(0, 115.0, 38.5)" width="34" x="98" y="-5"/>
<rect fill="#96D237" height="73" opacity="0.1" stroke="#7DA06E" stroke-opacity="0.3" stroke-width="6" transform="rotate(270, 31.665, 47.5)" width="11.33" x="26" y="11"/>
<polygon fill="#32A0DC" opacity="0.5" stroke="#7DA06E" stroke-opacity="1" stroke-width="12" transform="rotate(180, 61.295, 147.5)" points="61.00,104.00 148.00,104.00 104.50,179.34"/>
<rect fill="#323C6E" height="34" opacity="0.5" stroke="#96D237" stroke-opacity="0.2" stroke-width="4" transform="rotate(90, 92.295, 113.0)" width="0.59" x="92" y="96"/>
<rect fill="#640A00" height="73" opacity="0.1" stroke="#640A00" stroke-opacity="0.2" stroke-width="12" transform="rotate(90, 49.0, 131.5)" width="34" x="32" y="95"/>
<circle fill="#7DA06E" opacity="0.7" stroke="#E16EA5" stroke-opacity="0.3" stroke-width="6" r="17.00" cx="-1.00" cy="36.00"/>
<circle fill="#32A0DC" opacity="0.7" stroke="#640A00" stroke-opacity="0.3" stroke-width="6" r="5.67" cx="112.67" cy="67.67"/>
<circle fill="#96D237" opacity="0.7" stroke="#96A037" stroke-opacity="1" stroke-width="6" r="5.67" cx="10.67" cy="86.67"/>
<circle fill="#E16EA5" opacity="0.5" stroke="#96D237" stroke-opacity="1" stroke-width="6" r="43.50" cx="37.50" cy="148.50"/>
<circle fill="#64D237" opacity="0.5" stroke="#96D237" stroke-opacity="0.3" stroke-width="4" r="36.50" cx="25.50" cy="151.50"/>
<line fill="#96A037" opacity="0.7" stroke="#960A00" stroke-opacity="0.3" stroke-width="6" x1="8" x2="41" y1="21" y2="21"/>
<line fill="#E16EA5" opacity="0.7" stroke="#640A00" stroke-opacity="0.2" stroke-width="4" x1="45" x2="13" y1="44" y2="44"/>
<polygon fill="#960A00" opacity="0.5" stroke="#E16EA5" stroke-opacity="0.3" stroke-width="4" transform="rotate(180, 42.5, 101.325)" points="-19.00,101.00 -18.35,101.00 -18.68,101.56"/>
<rect fill="#64D237" height="73" opacity="0.7" stroke="#32A0DC" stroke-opacity="0.2" stroke-width="12" transform="rotate(90, 132.0, 20.5)" width="34" x="115" y="-16"/>
<rect fill="#96A037" height="59" opacity="0.5" stroke="#32A0DC" stroke-opacity="0.3" stroke-width="12" transform="rotate(0, 102.5, 116.5)" width="123" x="41" y="87"/>
<line fill="#AFEBDC" opacity="0.5" stroke="#96A037" stroke-opacity="1" stroke-width="6" x1="68" x2="13" y1="67" y2="67"/>
<line fill="#323C6E" opacity="0.1" stroke="#640A00" stroke-opacity="0.3" stroke-width="4" x1="52" x2="26" y1="90" y2="90"/>
<line fill="#32A0DC" opacity="0.7" stroke="#7DA06E" stroke-opacity="0.3" stroke-width="12" x1="54" x2="96" y1="21" y2="21"/>
<rect fill="#96A037" height="0.65" opacity="0.5" stroke="#96D237" stroke-opacity="1" stroke-width="12" transform="rotate(270, 52.295, 13.325)" width="0.59" x="52" y="13"/>
<line fill="#960A00" opacity="0.7" stroke="#AFEBDC" stroke-opacity="0.2" stroke-width="4" x1="67" x2="39" y1="44" y2="44"/>
<circle fill="#E16EA5" opacity="0.5" stroke="#96D237" stroke-opacity="1" stroke-width="12" r="43.50" cx="116.50" cy="91.50"/>
<line fill="#7DA06E" opacity="0.1" stroke="#19A000" stroke-opacity="0.2" stroke-width="4" x1="85" x2="63" y1="67" y2="67"/>
<rect fill="#640A00" height="73" opacity="0.5" stroke="#96A037" stroke-opacity="0.3" stroke-width="4" transform="rotate(180, 57.295, 42.5)" width="0.59" x="57" y="6"/>
<line fill="#640A00" opacity="0.5" stroke="#E16EA5" stroke-opacity="1" stroke-width="12" x1="76" x2="17" y1="90" y2="90"/>
<circle fill="#E16EA5" opacity="0.5" stroke="#E16EA5" stroke-opacity="0.3" stroke-width="12" r="61.50" cx="136.50" cy="100.50"/>
</svg>