<?xml version="1.0" standalone="no"?>
<svg xmlns="http://www.w3.org/2000/svg" xmlns:xlink="http://www.w3.org/1999/xlink/" width="21in" height="21in" viewBox="0 0 100 100" version="1.2">

  <desc>Picture by J. Wendt</desc>
  <!-- START Generator PARAMETERS in Json -->
  <desc>{"params":{"colorid":427,"nr_of_figures":32,"figures":["rc",[["rect","polygon","circle","line"]]],"y":["ri",[-20,120]],"fill":["rc",[["#4353D3","#32D761","#D5C734","#D532CE","#D83144"]]],"transform":["rc",[[0,180]]],"structure":"RANDOM","x":["ri",[-20,120]],"opacity":["rc",[[0.6,0.4]]],"height":["rc",[[40,20]]],"palette":["#4353D3","#32D761","#D5C734","#D532CE","#D83144"],"stroke":["rc",[["#4353D3","#32D761","#D5C734","#D532CE","#D83144"]]],"width":["rc",[[50,10]]],"stroke-linecap":["rc",[["round"]]],"stroke-width":["rc",[[6,4]]],"stroke-opacity":["rc",[[0.8,0.6]]]}}</desc>
  <!-- END Generator PARAMETERS in Json -->
  
  <!-- Show outline of canvas using 'rect' element -->
  <rect id="bg-00" x="0" y="0" width="100" height="100" fill="grey" opacity=".4" stroke="goldenrod" stroke-opacity=".3" stroke-width="0.1"/>

<rect fill="#32D761" height="20" opacity="0.6" stroke="#4353D3" stroke-linecap="round" stroke-opacity="0.8" stroke-width="4" transform="rotate(0, 61.0, 21.0)" width="10" x="56" y="11"/>
<polygon fill="#32D761" opacity="0.4" stroke="#4353D3" stroke-linecap="round" stroke-opacity="0.8" stroke-width="4" transform="rotate(0, 121.0, 17.0)" points="96.00,-3.00 136.00,-3.00 116.00,31.64"/>
<polygon fill="#D532CE" opacity="0.4" stroke="#D83144" stroke-linecap="round" stroke-opacity="0.6" stroke-width="4" transform="rotate(180, 103.0, 118.0)" points="78.00,108.00 98.00,108.00 88.00,125.32"/>
<line fill="#32D761" opacity="0.6" stroke="#4353D3" stroke-linecap="round" stroke-opacity="0.6" stroke-width="6" x1="40" x2="63" y1="10" y2="10"/>
<rect fill="#D83144" height="40" opacity="0.4" stroke="#D83144" stroke-linecap="round" stroke-opacity="0.6" stroke-width="4" transform="rotate(0, 42.0, 53.0)" width="10" x="37" y="33"/>
<rect fill="#D532CE" height="20" opacity="0.6" stroke="#D5C734" stroke-linecap="round" stroke-opacity="0.8" stroke-width="6" transform="rotate(180, 104.0, 57.0)" width="50" x="79" y="47"/>
<circle fill="#D83144" opacity="0.4" stroke="#D83144" stroke-linecap="round" stroke-opacity="0.6" stroke-width="4" r="25.00" cx="5.00" cy="61.00"/>
<polygon fill="#D83144" opacity="0.4" stroke="#D5C734" stroke-linecap="round" stroke-opacity="0.8" stroke-width="4" transform="rotate(180, 92.0, 130.0)" points="67.00,110.00 107.00,110.00 87.00,144.64"/>
<line fill="#D83144" opacity="0.4" stroke="#D532CE" stroke-linecap="round" stroke-opacity="0.6" stroke-width="4" x1="73" x2="26" y1="22" y2="22"/>
<circle fill="#4353D3" opacity="0.6" stroke="#D83144" stroke-linecap="round" stroke-opacity="0.8" stroke-width="6" r="25.00" cx="130.00" cy="134.00"/>
<polygon fill="#D532CE" opacity="0.6" stroke="#4353D3" stroke-linecap="round" stroke-opacity="0.6" stroke-width="4" transform="rotate(0, 40.0, 5.0)" points="15.00,-5.00 35.00,-5.00 25.00,12.32"/>
<polygon fill="#4353D3" opacity="0.6" stroke="#4353D3" stroke-linecap="round" stroke-opacity="0.6" stroke-width="4" transform="rotate(0, 124.0, 50.0)" points="119.00,30.00 159.00,30.00 139.00,64.64"/>
<circle fill="#4353D3" opacity="0.4" stroke="#4353D3" stroke-linecap="round" stroke-opacity="0.6" stroke-width="6" r="25.00" cx="118.00" cy="142.00"/>
<circle fill="#4353D3" opacity="0.6" stroke="#D5C734" stroke-linecap="round" stroke-opacity="0.8" stroke-width="6" r="10.00" cx="109.00" cy="2.00"/>
<line fill="#32D761" opacity="0.4" stroke="#D532CE" stroke-linecap="round" stroke-opacity="0.8" stroke-width="6" x1="56" x2="59" y1="34" y2="34"/>
<polygon fill="#D5C734" opacity="0.4" stroke="#4353D3" stroke-linecap="round" stroke-opacity="0.6" stroke-width="4" transform="rotate(0, 57.0, 112.0)" points="52.00,92.00 92.00,92.00 72.00,126.64"/>
<line fill="#D5C734" opacity="0.6" stroke="#32D761" stroke-linecap="round" stroke-opacity="0.8" stroke-width="6" x1="76" x2="35" y1="46" y2="46"/>
<polygon fill="#D83144" opacity="0.4" stroke="#D532CE" stroke-linecap="round" stroke-opacity="0.8" stroke-width="4" transform="rotate(0, 121.0, 95.0)" points="116.00,85.00 136.00,85.00 126.00,102.32"/>
<line fill="#D83144" opacity="0.4" stroke="#D5C734" stroke-linecap="round" stroke-opacity="0.8" stroke-width="4" x1="14" x2="32" y1="58" y2="58"/>
<rect fill="#D83144" height="20" opacity="0.4" stroke="#D83144" stroke-linecap="round" stroke-opacity="0.6" stroke-width="6" transform="rotate(180, 145.0, 79.0)" width="50" x="120" y="69"/>
<rect fill="#D532CE" height="40" opacity="0.6" stroke="#D532CE" stroke-linecap="round" stroke-opacity="0.6" stroke-width="6" transform="rotate(0, 92.0, 21.0)" width="10" x="87" y="1"/>
<line fill="#32D761" opacity="0.4" stroke="#D5C734" stroke-linecap="round" stroke-opacity="0.8" stroke-width="6" x1="73" x2="20" y1="70" y2="70"/>
<rect fill="#4353D3" height="40" opacity="0.4" stroke="#32D761" stroke-linecap="round" stroke-opacity="0.8" stroke-width="6" transform="rotate(180, 18.0, 5.0)" width="10" x="13" y="-15"/>
<rect fill="#D532CE" height="20" opacity="0.6" stroke="#D83144" stroke-linecap="round" stroke-opacity="0.8" stroke-width="6" transform="rotate(180, 12.0, 92.0)" width="10" x="7" y="82"/>
<rect fill="#D5C734" height="20" opacity="0.4" stroke="#D83144" stroke-linecap="round" stroke-opacity="0.8" stroke-width="6" transform="rotate(0, 11.0, 45.0)" width="50" x="-14" y="35"/>
<polygon fill="#D83144" opacity="0.4" stroke="#D5C734" stroke-linecap="round" stroke-opacity="0.8" stroke-width="6" transform="rotate(180, 13.0, 102.0)" points="8.00,92.00 28.00,92.00 18.00,109.32"/>
<polygon fill="#D532CE" opacity="0.6" stroke="#D83144" stroke-linecap="round" stroke-opacity="0.8" stroke-width="6" transform="rotate(180, 103.0, 3.0)" points="98.00,-7.00 118.00,-7.00 108.00,10.32"/>
<circle fill="#D5C734" opacity="0.4" stroke="#D5C734" stroke-linecap="round" stroke-opacity="0.6" stroke-width="4" r="10.00" cx="127.00" cy="64.00"/>
<circle fill="#D5C734" opacity="0.4" stroke="#D83144" stroke-linecap="round" stroke-opacity="0.6" stroke-width="6" r="25.00" cx="122.00" cy="105.00"/>
<polygon fill="#32D761" opacity="0.6" stroke="#32D761" stroke-linecap="round" stroke-opacity="0.6" stroke-width="4" transform="rotate(0, 13.0, -9.0)" points="-12.00,-19.00 8.00,-19.00 -2.00,-1.68"/>
<line fill="#32D761" opacity="0.4" stroke="#D83144" stroke-linecap="round" stroke-opacity="0.6" stroke-width="4" x1="52" x2="32" y1="82" y2="82"/>
<rect fill="#D532CE" height="40" opacity="0.4" stroke="#D532CE" stroke-linecap="round" stroke-opacity="0.8" stroke-width="4" transform="rotate(0, 83.0, 102.0)" width="10" x="78" y="82"/>
</svg>