<?xml version="1.0" standalone="no"?>
<svg xmlns="http://www.w3.org/2000/svg" xmlns:xlink="http://www.w3.org/1999/xlink/" width="20in" height="12in" viewBox="0 0 100 60" version="1.2">

  <desc>Picture by J. Wendt</desc>
  <!-- START Generator PARAMETERS in Json -->
  <desc>{"params":{"structure":"RANDOM","nr_of_figures":96,"rows":12,"columns":6,"x":["ri",[-20,80]],"y":["ri",[-20,120]],"height":["rr",[5,34,4]],"width":["rr",[3,21,5]],"palette":["#5BA3CF","#68F845","#27A300","#5BD673","#D0A3A1","#A90AB8","#A9C5CF","#827073"],"figures":["rc",[["polygon","circle","rect"]]],"fill":["rc",[["#5BA3CF","#68F845","#27A300","#5BD673","#D0A3A1","#A90AB8","#A9C5CF","#827073"]]],"stroke":["rc",[["#5BA3CF","#68F845","#27A300","#5BD673","#D0A3A1","#A90AB8","#A9C5CF","#827073"]]],"stroke-opacity":["rc",[[0.2,0.3,1]]],"stroke-width":["ri",[10,25]]}}</desc>
  <!-- END Generator PARAMETERS in Json -->

  <!-- Show outline of canvas using 'rect' element -->
  <rect id="bg-00" x="0" y="0" width="100" height="60" fill="#68F845" opacity=".3" stroke="#32A0A5" stroke-opacity=".3" stroke-width="0.1"/>

<circle fill="#827073" stroke="#68F845" stroke-opacity="0.2" stroke-width="11" r="4.50" cx="38.50" cy="29.50"/>
<polygon fill="#D0A3A1" stroke="#68F845" stroke-opacity="0.2" stroke-width="14" points="50.00,61.00 83.00,61.00 66.50,89.58"/>
<rect fill="#5BD673" height="9" stroke="#D0A3A1" stroke-opacity="0.3" stroke-width="20" width="8" x="78" y="66"/>
<circle fill="#5BD673" stroke="#5BA3CF" stroke-opacity="0.2" stroke-width="14" r="12.50" cx="59.50" cy="98.50"/>
<rect fill="#D0A3A1" height="33" stroke="#5BD673" stroke-opacity="0.2" stroke-width="23" width="13" x="73" y="40"/>
<rect fill="#5BA3CF" height="13" stroke="#68F845" stroke-opacity="0.3" stroke-width="16" width="13" x="40" y="50"/>
<circle fill="#827073" stroke="#D0A3A1" stroke-opacity="0.3" stroke-width="11" r="16.50" cx="88.50" cy="106.50"/>
<circle fill="#827073" stroke="#27A300" stroke-opacity="0.2" stroke-width="13" r="9.00" cx="56.00" cy="0.00"/>
<circle fill="#27A300" stroke="#5BA3CF" stroke-opacity="0.3" stroke-width="18" r="9.00" cx="17.00" cy="100.00"/>
<circle fill="#27A300" stroke="#D0A3A1" stroke-opacity="1" stroke-width="10" r="14.50" cx="8.50" cy="102.50"/>
<rect fill="#A90AB8" height="17" stroke="#D0A3A1" stroke-opacity="1" stroke-width="11" width="13" x="32" y="53"/>
<polygon fill="#5BA3CF" stroke="#827073" stroke-opacity="1" stroke-width="23" points="70.00,102.00 99.00,102.00 84.50,127.11"/>
<rect fill="#5BA3CF" height="33" stroke="#27A300" stroke-opacity="0.2" stroke-width="21" width="8" x="50" y="110"/>
<rect fill="#27A300" height="21" stroke="#827073" stroke-opacity="0.3" stroke-width="18" width="8" x="-4" y="8"/>
<rect fill="#D0A3A1" height="21" stroke="#5BA3CF" stroke-opacity="1" stroke-width="15" width="18" x="-17" y="-4"/>
<polygon fill="#A90AB8" stroke="#D0A3A1" stroke-opacity="0.2" stroke-width="19" points="75.00,-14.00 88.00,-14.00 81.50,-2.74"/>
<rect fill="#68F845" height="17" stroke="#5BA3CF" stroke-opacity="0.3" stroke-width="24" width="13" x="-10" y="50"/>
<polygon fill="#A9C5CF" stroke="#D0A3A1" stroke-opacity="1" stroke-width="10" points="43.00,118.00 52.00,118.00 47.50,125.79"/>
<circle fill="#68F845" stroke="#827073" stroke-opacity="0.3" stroke-width="24" r="9.00" cx="32.00" cy="1.00"/>
<rect fill="#5BA3CF" height="29" stroke="#827073" stroke-opacity="0.2" stroke-width="19" width="3" x="19" y="41"/>
<polygon fill="#A90AB8" stroke="#A90AB8" stroke-opacity="0.3" stroke-width="19" points="30.00,34.00 63.00,34.00 46.50,62.58"/>
<rect fill="#D0A3A1" height="21" stroke="#27A300" stroke-opacity="0.3" stroke-width="14" width="3" x="23" y="10"/>
<polygon fill="#827073" stroke="#A9C5CF" stroke-opacity="0.3" stroke-width="18" points="-12.00,21.00 -7.00,21.00 -9.50,25.33"/>
<polygon fill="#5BA3CF" stroke="#A90AB8" stroke-opacity="0.3" stroke-width="18" points="32.00,106.00 57.00,106.00 44.50,127.65"/>
<polygon fill="#5BD673" stroke="#27A300" stroke-opacity="0.3" stroke-width="21" points="69.00,18.00 74.00,18.00 71.50,22.33"/>
<rect fill="#68F845" height="25" stroke="#68F845" stroke-opacity="0.3" stroke-width="19" width="3" x="0" y="-13"/>
<polygon fill="#5BD673" stroke="#D0A3A1" stroke-opacity="1" stroke-width="12" points="7.00,-4.00 40.00,-4.00 23.50,24.58"/>
<rect fill="#827073" height="13" stroke="#27A300" stroke-opacity="0.3" stroke-width="16" width="13" x="71" y="65"/>
<polygon fill="#A9C5CF" stroke="#5BD673" stroke-opacity="0.3" stroke-width="19" points="36.00,102.00 61.00,102.00 48.50,123.65"/>
<rect fill="#27A300" height="21" stroke="#A9C5CF" stroke-opacity="0.3" stroke-width="25" width="13" x="26" y="62"/>
<rect fill="#A90AB8" height="29" stroke="#A9C5CF" stroke-opacity="0.2" stroke-width="25" width="13" x="19" y="39"/>
<circle fill="#68F845" stroke="#27A300" stroke-opacity="1" stroke-width="21" r="16.50" cx="40.50" cy="83.50"/>
<polygon fill="#827073" stroke="#5BA3CF" stroke-opacity="1" stroke-width="19" points="47.00,30.00 76.00,30.00 61.50,55.11"/>
<polygon fill="#D0A3A1" stroke="#5BD673" stroke-opacity="0.3" stroke-width="10" points="35.00,80.00 44.00,80.00 39.50,87.79"/>
<rect fill="#A90AB8" height="25" stroke="#5BA3CF" stroke-opacity="0.3" stroke-width="18" width="18" x="54" y="26"/>
<rect fill="#827073" height="33" stroke="#D0A3A1" stroke-opacity="0.2" stroke-width="19" width="13" x="71" y="7"/>
<polygon fill="#D0A3A1" stroke="#A9C5CF" stroke-opacity="0.3" stroke-width="24" points="4.00,107.00 9.00,107.00 6.50,111.33"/>
<circle fill="#A9C5CF" stroke="#A90AB8" stroke-opacity="1" stroke-width="19" r="4.50" cx="37.50" cy="-5.50"/>
<polygon fill="#827073" stroke="#A9C5CF" stroke-opacity="1" stroke-width="25" points="27.00,-11.00 44.00,-11.00 35.50,3.72"/>
<circle fill="#5BA3CF" stroke="#68F845" stroke-opacity="0.2" stroke-width="14" r="4.00" cx="-8.00" cy="45.00"/>
<circle fill="#68F845" stroke="#5BA3CF" stroke-opacity="0.2" stroke-width="15" r="12.50" cx="66.50" cy="72.50"/>
<rect fill="#5BD673" height="5" stroke="#5BA3CF" stroke-opacity="0.3" stroke-width="12" width="18" x="-20" y="70"/>
<circle fill="#827073" stroke="#A9C5CF" stroke-opacity="1" stroke-width="20" r="9.00" cx="17.00" cy="121.00"/>
<circle fill="#827073" stroke="#5BA3CF" stroke-opacity="1" stroke-width="19" r="6.50" cx="29.50" cy="124.50"/>
<circle fill="#827073" stroke="#D0A3A1" stroke-opacity="0.3" stroke-width="15" r="14.50" cx="16.50" cy="34.50"/>
<circle fill="#A9C5CF" stroke="#A90AB8" stroke-opacity="1" stroke-width="16" r="10.50" cx="78.50" cy="117.50"/>
<circle fill="#827073" stroke="#827073" stroke-opacity="0.2" stroke-width="20" r="4.50" cx="43.50" cy="-11.50"/>
<polygon fill="#5BD673" stroke="#5BD673" stroke-opacity="0.2" stroke-width="12" points="17.00,47.00 42.00,47.00 29.50,68.65"/>
<rect fill="#5BA3CF" height="17" stroke="#68F845" stroke-opacity="1" stroke-width="25" width="13" x="62" y="-2"/>
<polygon fill="#5BA3CF" stroke="#68F845" stroke-opacity="1" stroke-width="22" points="23.00,-20.00 40.00,-20.00 31.50,-5.28"/>
<polygon fill="#827073" stroke="#D0A3A1" stroke-opacity="1" stroke-width="12" points="38.00,-15.00 59.00,-15.00 48.50,3.19"/>
<circle fill="#68F845" stroke="#68F845" stroke-opacity="0.3" stroke-width="15" r="6.50" cx="51.50" cy="109.50"/>
<polygon fill="#5BA3CF" stroke="#827073" stroke-opacity="0.2" stroke-width="23" points="54.00,90.00 59.00,90.00 56.50,94.33"/>
<circle fill="#D0A3A1" stroke="#A90AB8" stroke-opacity="0.2" stroke-width="20" r="14.50" cx="-3.50" cy="85.50"/>
<polygon fill="#5BD673" stroke="#827073" stroke-opacity="0.2" stroke-width="22" points="67.00,5.00 88.00,5.00 77.50,23.19"/>
<circle fill="#A90AB8" stroke="#A90AB8" stroke-opacity="0.2" stroke-width="19" r="6.50" cx="50.50" cy="124.50"/>
<rect fill="#A90AB8" height="13" stroke="#A90AB8" stroke-opacity="1" stroke-width="18" width="13" x="33" y="-19"/>
<polygon fill="#5BA3CF" stroke="#5BD673" stroke-opacity="0.2" stroke-width="21" points="25.00,76.00 30.00,76.00 27.50,80.33"/>
<polygon fill="#827073" stroke="#5BD673" stroke-opacity="0.3" stroke-width="19" points="37.00,85.00 66.00,85.00 51.50,110.11"/>
<polygon fill="#27A300" stroke="#A90AB8" stroke-opacity="1" stroke-width="17" points="37.00,-1.00 42.00,-1.00 39.50,3.33"/>
<rect fill="#D0A3A1" height="13" stroke="#A9C5CF" stroke-opacity="1" stroke-width="10" width="18" x="-17" y="-7"/>
<polygon fill="#27A300" stroke="#68F845" stroke-opacity="0.2" stroke-width="21" points="2.00,4.00 7.00,4.00 4.50,8.33"/>
<polygon fill="#827073" stroke="#5BD673" stroke-opacity="0.2" stroke-width="19" points="18.00,-2.00 43.00,-2.00 30.50,19.65"/>
<circle fill="#5BA3CF" stroke="#27A300" stroke-opacity="0.2" stroke-width="20" r="4.00" cx="42.00" cy="21.00"/>
<rect fill="#A9C5CF" height="29" stroke="#A9C5CF" stroke-opacity="1" stroke-width="10" width="18" x="64" y="44"/>
<circle fill="#827073" stroke="#A90AB8" stroke-opacity="1" stroke-width="14" r="10.50" cx="-8.50" cy="-0.50"/>
<polygon fill="#5BA3CF" stroke="#D0A3A1" stroke-opacity="1" stroke-width="20" points="42.00,54.00 47.00,54.00 44.50,58.33"/>
<rect fill="#5BD673" height="17" stroke="#5BA3CF" stroke-opacity="0.2" stroke-width="13" width="3" x="32" y="-13"/>
<circle fill="#827073" stroke="#A9C5CF" stroke-opacity="1" stroke-width="10" r="12.50" cx="73.50" cy="25.50"/>
<polygon fill="#D0A3A1" stroke="#5BA3CF" stroke-opacity="0.3" stroke-width="10" points="16.00,96.00 25.00,96.00 20.50,103.79"/>
<circle fill="#5BA3CF" stroke="#827073" stroke-opacity="0.2" stroke-width="20" r="12.50" cx="54.50" cy="50.50"/>
<circle fill="#A90AB8" stroke="#27A300" stroke-opacity="0.3" stroke-width="23" r="8.50" cx="67.50" cy="124.50"/>
<circle fill="#68F845" stroke="#68F845" stroke-opacity="0.3" stroke-width="16" r="9.00" cx="10.00" cy="36.00"/>
<rect fill="#68F845" height="13" stroke="#27A300" stroke-opacity="0.3" stroke-width="11" width="13" x="61" y="-1"/>
<circle fill="#A9C5CF" stroke="#D0A3A1" stroke-opacity="0.3" stroke-width="15" r="14.50" cx="-0.50" cy="116.50"/>
<polygon fill="#D0A3A1" stroke="#68F845" stroke-opacity="0.2" stroke-width="15" points="48.00,48.00 61.00,48.00 54.50,59.26"/>
<polygon fill="#27A300" stroke="#A9C5CF" stroke-opacity="1" stroke-width="24" points="22.00,-2.00 55.00,-2.00 38.50,26.58"/>
<circle fill="#A90AB8" stroke="#27A300" stroke-opacity="0.2" stroke-width="24" r="10.50" cx="27.50" cy="23.50"/>
<rect fill="#5BA3CF" height="29" stroke="#A90AB8" stroke-opacity="0.2" stroke-width="11" width="8" x="43" y="88"/>
<polygon fill="#27A300" stroke="#68F845" stroke-opacity="0.2" stroke-width="19" points="12.00,112.00 29.00,112.00 20.50,126.72"/>
<polygon fill="#5BD673" stroke="#827073" stroke-opacity="0.3" stroke-width="22" points="31.00,59.00 36.00,59.00 33.50,63.33"/>
<rect fill="#A9C5CF" height="9" stroke="#827073" stroke-opacity="0.3" stroke-width="18" width="13" x="-15" y="41"/>
<rect fill="#5BA3CF" height="33" stroke="#827073" stroke-opacity="0.3" stroke-width="10" width="13" x="64" y="38"/>
<rect fill="#A9C5CF" height="13" stroke="#D0A3A1" stroke-opacity="0.2" stroke-width="19" width="3" x="21" y="30"/>
<polygon fill="#68F845" stroke="#D0A3A1" stroke-opacity="1" stroke-width="16" points="75.00,26.00 92.00,26.00 83.50,40.72"/>
<circle fill="#68F845" stroke="#D0A3A1" stroke-opacity="0.2" stroke-width="12" r="14.50" cx="13.50" cy="123.50"/>
<circle fill="#A90AB8" stroke="#5BD673" stroke-opacity="0.3" stroke-width="17" r="4.00" cx="-9.00" cy="54.00"/>
<polygon fill="#5BA3CF" stroke="#68F845" stroke-opacity="0.2" stroke-width="12" points="78.00,77.00 95.00,77.00 86.50,91.72"/>
<polygon fill="#68F845" stroke="#27A300" stroke-opacity="0.3" stroke-width="15" points="25.00,75.00 46.00,75.00 35.50,93.19"/>
<rect fill="#27A300" height="29" stroke="#827073" stroke-opacity="0.2" stroke-width="10" width="3" x="75" y="42"/>
<polygon fill="#5BD673" stroke="#A9C5CF" stroke-opacity="0.3" stroke-width="22" points="4.00,73.00 17.00,73.00 10.50,84.26"/>
<rect fill="#27A300" height="9" stroke="#827073" stroke-opacity="0.3" stroke-width="25" width="13" x="40" y="111"/>
<circle fill="#A90AB8" stroke="#5BA3CF" stroke-opacity="0.3" stroke-width="24" r="12.50" cx="1.50" cy="70.50"/>
<rect fill="#68F845" height="17" stroke="#27A300" stroke-opacity="1" stroke-width="17" width="8" x="59" y="47"/>
<rect fill="#5BA3CF" height="17" stroke="#A90AB8" stroke-opacity="1" stroke-width="23" width="18" x="-11" y="46"/>
<polygon fill="#827073" stroke="#5BA3CF" stroke-opacity="0.2" stroke-width="11" points="0.00,73.00 33.00,73.00 16.50,101.58"/>
</svg>