<?xml version="1.0" standalone="no"?>
<svg xmlns="http://www.w3.org/2000/svg" xmlns:xlink="http://www.w3.org/1999/xlink/" width="21in" height="21in" viewBox="0 0 100 100" version="1.2">

  <desc>Picture by J. Wendt</desc>
  <!-- START Generator PARAMETERS in Json -->
  <desc>{"params":{"fill":["rc",[["rgb(175, 210, 220)","rgb(250, 110, 110)","rgb(100, 235, 220)","rgb(225, 110, 55)","rgb(100, 185, 55)","rgb(25, 185, 220)","rgb(0, 10, 0)","rgb(225, 85, 165)","rgb(200, 85, 0)","rgb(150, 35, 165)","rgb(25, 35, 110)","rgb(100, 35, 110)","rgb(225, 235, 55)","rgb(50, 110, 220)","rgb(0, 210, 220)","rgb(225, 110, 165)","rgb(100, 185, 165)","rgb(25, 235, 165)","rgb(150, 85, 55)","rgb(200, 35, 165)","rgb(125, 160, 220)","rgb(150, 85, 165)","rgb(200, 160, 220)","rgb(75, 210, 110)","rgb(100, 185, 110)","rgb(0, 60, 0)","rgb(125, 235, 55)","rgb(200, 160, 220)","rgb(200, 110, 110)","rgb(125, 135, 220)","rgb(250, 210, 55)","rgb(175, 160, 110)","rgb(150, 60, 165)","rgb(100, 110, 165)","rgb(100, 35, 220)","rgb(250, 135, 55)"]]],"stroke-opacity":["rc",[[0.8,0.6]]],"nr_of_figures":56,"palette":["rgb(175, 210, 220)","rgb(250, 110, 110)","rgb(100, 235, 220)","rgb(225, 110, 55)","rgb(100, 185, 55)","rgb(25, 185, 220)","rgb(0, 10, 0)","rgb(225, 85, 165)","rgb(200, 85, 0)","rgb(150, 35, 165)","rgb(25, 35, 110)","rgb(100, 35, 110)","rgb(225, 235, 55)","rgb(50, 110, 220)","rgb(0, 210, 220)","rgb(225, 110, 165)","rgb(100, 185, 165)","rgb(25, 235, 165)","rgb(150, 85, 55)","rgb(200, 35, 165)","rgb(125, 160, 220)","rgb(150, 85, 165)","rgb(200, 160, 220)","rgb(75, 210, 110)","rgb(100, 185, 110)","rgb(0, 60, 0)","rgb(125, 235, 55)","rgb(200, 160, 220)","rgb(200, 110, 110)","rgb(125, 135, 220)","rgb(250, 210, 55)","rgb(175, 160, 110)","rgb(150, 60, 165)","rgb(100, 110, 165)","rgb(100, 35, 220)","rgb(250, 135, 55)"],"colorid":651,"x":["ri",[-20,120]],"stroke":["rc",[["rgb(175, 210, 220)","rgb(250, 110, 110)","rgb(100, 235, 220)","rgb(225, 110, 55)","rgb(100, 185, 55)","rgb(25, 185, 220)","rgb(0, 10, 0)","rgb(225, 85, 165)","rgb(200, 85, 0)","rgb(150, 35, 165)","rgb(25, 35, 110)","rgb(100, 35, 110)","rgb(225, 235, 55)","rgb(50, 110, 220)","rgb(0, 210, 220)","rgb(225, 110, 165)","rgb(100, 185, 165)","rgb(25, 235, 165)","rgb(150, 85, 55)","rgb(200, 35, 165)","rgb(125, 160, 220)","rgb(150, 85, 165)","rgb(200, 160, 220)","rgb(75, 210, 110)","rgb(100, 185, 110)","rgb(0, 60, 0)","rgb(125, 235, 55)","rgb(200, 160, 220)","rgb(200, 110, 110)","rgb(125, 135, 220)","rgb(250, 210, 55)","rgb(175, 160, 110)","rgb(150, 60, 165)","rgb(100, 110, 165)","rgb(100, 35, 220)","rgb(250, 135, 55)"]]],"width":["rc",[[20,10,40]]],"stroke-width":["rc",[[6,4]]],"y":["ri",[-20,120]],"structure":"RANDOM","figures":["rc",[["polygon","rect","circle","polygon","rect","circle","line"]]],"opacity":["rc",[[0.6,0.8]]],"height":["rc",[[20,10,5]]],"transform":["rc",[[0,180,90,270]]]}}</desc>
  <!-- END Generator PARAMETERS in Json -->

  <!-- Show outline of canvas using 'rect' element -->
  <rect id="bg-00" x="0" y="0" width="100" height="100" fill="rgb(100,35,110)" opacity=".8" stroke="white" stroke-opacity=".3" stroke-width="0.1"/>

<line fill="rgb(200, 35, 165)" opacity="0.6" stroke="rgb(225, 235, 55)" stroke-opacity="0.6" stroke-width="4" x1="20" x2="96" y1="10" y2="10"/>
<rect fill="rgb(0, 10, 0)" height="20" opacity="0.6" stroke="rgb(100, 110, 165)" stroke-opacity="0.6" stroke-width="6" transform="rotate(0, 94.0, 30.0)" width="40" x="74" y="20"/>
<polygon fill="rgb(200, 160, 220)" opacity="0.8" stroke="rgb(200, 35, 165)" stroke-opacity="0.8" stroke-width="6" transform="rotate(180, 69.0, 3.0)" points="49.00,-2.00 59.00,-2.00 54.00,6.66"/>
<rect fill="rgb(100, 35, 220)" height="10" opacity="0.8" stroke="rgb(0, 210, 220)" stroke-opacity="0.8" stroke-width="6" transform="rotate(180, 116.0, 39.0)" width="20" x="106" y="34"/>
<circle fill="rgb(100, 185, 165)" opacity="0.8" stroke="rgb(175, 160, 110)" stroke-opacity="0.6" stroke-width="4" r="5.00" cx="14.00" cy="93.00"/>
<polygon fill="rgb(150, 85, 55)" opacity="0.6" stroke="rgb(200, 35, 165)" stroke-opacity="0.6" stroke-width="6" transform="rotate(270, 12.0, 25.0)" points="2.00,15.00 22.00,15.00 12.00,32.32"/>
<rect fill="rgb(125, 160, 220)" height="5" opacity="0.6" stroke="rgb(150, 35, 165)" stroke-opacity="0.6" stroke-width="6" transform="rotate(0, 52.0, 103.5)" width="40" x="32" y="101"/>
<rect fill="rgb(225, 85, 165)" height="5" opacity="0.6" stroke="rgb(100, 185, 110)" stroke-opacity="0.8" stroke-width="4" transform="rotate(180, 102.0, 7.5)" width="20" x="92" y="5"/>
<rect fill="rgb(150, 60, 165)" height="5" opacity="0.8" stroke="rgb(125, 160, 220)" stroke-opacity="0.6" stroke-width="4" transform="rotate(0, 82.0, 121.5)" width="40" x="62" y="119"/>
<rect fill="rgb(250, 210, 55)" height="10" opacity="0.8" stroke="rgb(0, 10, 0)" stroke-opacity="0.6" stroke-width="6" transform="rotate(0, 59.0, -15.0)" width="40" x="39" y="-20"/>
<rect fill="rgb(50, 110, 220)" height="10" opacity="0.6" stroke="rgb(250, 210, 55)" stroke-opacity="0.8" stroke-width="4" transform="rotate(180, 75.0, 77.0)" width="10" x="70" y="72"/>
<circle fill="rgb(150, 85, 55)" opacity="0.8" stroke="rgb(225, 235, 55)" stroke-opacity="0.8" stroke-width="4" r="10.00" cx="49.00" cy="-5.00"/>
<circle fill="rgb(100, 185, 165)" opacity="0.6" stroke="rgb(200, 35, 165)" stroke-opacity="0.6" stroke-width="6" r="10.00" cx="39.00" cy="19.00"/>
<rect fill="rgb(225, 110, 165)" height="20" opacity="0.6" stroke="rgb(25, 235, 165)" stroke-opacity="0.6" stroke-width="4" transform="rotate(180, 61.0, 61.0)" width="20" x="51" y="51"/>
<rect fill="rgb(100, 110, 165)" height="10" opacity="0.6" stroke="rgb(100, 35, 110)" stroke-opacity="0.6" stroke-width="6" transform="rotate(90, 38.0, 95.0)" width="20" x="28" y="90"/>
<line fill="rgb(100, 185, 55)" opacity="0.6" stroke="rgb(225, 110, 165)" stroke-opacity="0.6" stroke-width="6" x1="4" x2="98" y1="22" y2="22"/>
<polygon fill="rgb(225, 85, 165)" opacity="0.6" stroke="rgb(125, 160, 220)" stroke-opacity="0.6" stroke-width="6" transform="rotate(90, 65.0, 123.0)" points="55.00,118.00 65.00,118.00 60.00,126.66"/>
<polygon fill="rgb(150, 60, 165)" opacity="0.6" stroke="rgb(150, 60, 165)" stroke-opacity="0.8" stroke-width="6" transform="rotate(90, 82.0, 13.0)" points="72.00,8.00 82.00,8.00 77.00,16.66"/>
<circle fill="rgb(150, 85, 165)" opacity="0.8" stroke="rgb(25, 185, 220)" stroke-opacity="0.8" stroke-width="4" r="5.00" cx="30.00" cy="89.00"/>
<circle fill="rgb(250, 135, 55)" opacity="0.6" stroke="rgb(100, 185, 165)" stroke-opacity="0.6" stroke-width="6" r="5.00" cx="86.00" cy="-15.00"/>
<circle fill="rgb(100, 235, 220)" opacity="0.8" stroke="rgb(225, 110, 165)" stroke-opacity="0.6" stroke-width="6" r="20.00" cx="16.00" cy="111.00"/>
<circle fill="rgb(100, 110, 165)" opacity="0.8" stroke="rgb(25, 185, 220)" stroke-opacity="0.8" stroke-width="4" r="5.00" cx="35.00" cy="109.00"/>
<rect fill="rgb(150, 85, 55)" height="20" opacity="0.6" stroke="rgb(200, 110, 110)" stroke-opacity="0.6" stroke-width="6" transform="rotate(90, 68.0, 105.0)" width="40" x="48" y="95"/>
<circle fill="rgb(25, 235, 165)" opacity="0.6" stroke="rgb(100, 185, 110)" stroke-opacity="0.6" stroke-width="4" r="10.00" cx="58.00" cy="30.00"/>
<rect fill="rgb(0, 10, 0)" height="10" opacity="0.6" stroke="rgb(200, 85, 0)" stroke-opacity="0.6" stroke-width="4" transform="rotate(0, 17.0, 83.0)" width="40" x="-3" y="78"/>
<rect fill="rgb(150, 85, 55)" height="5" opacity="0.6" stroke="rgb(250, 110, 110)" stroke-opacity="0.6" stroke-width="6" transform="rotate(90, 33.0, 7.5)" width="10" x="28" y="5"/>
<rect fill="rgb(125, 135, 220)" height="5" opacity="0.8" stroke="rgb(125, 235, 55)" stroke-opacity="0.8" stroke-width="6" transform="rotate(90, 47.0, -15.5)" width="10" x="42" y="-18"/>
<polygon fill="rgb(250, 210, 55)" opacity="0.8" stroke="rgb(250, 135, 55)" stroke-opacity="0.8" stroke-width="6" transform="rotate(0, 16.0, 45.0)" points="-4.00,35.00 16.00,35.00 6.00,52.32"/>
<rect fill="rgb(125, 160, 220)" height="5" opacity="0.6" stroke="rgb(25, 35, 110)" stroke-opacity="0.8" stroke-width="6" transform="rotate(0, 70.0, 13.5)" width="40" x="50" y="11"/>
<polygon fill="rgb(150, 60, 165)" opacity="0.6" stroke="rgb(25, 235, 165)" stroke-opacity="0.6" stroke-width="4" transform="rotate(0, 104.0, 113.5)" points="99.00,111.00 104.00,111.00 101.50,115.33"/>
<polygon fill="rgb(0, 10, 0)" opacity="0.6" stroke="rgb(0, 60, 0)" stroke-opacity="0.6" stroke-width="4" transform="rotate(90, 135.0, 68.0)" points="115.00,58.00 135.00,58.00 125.00,75.32"/>
<polygon fill="rgb(100, 185, 165)" opacity="0.6" stroke="rgb(200, 110, 110)" stroke-opacity="0.8" stroke-width="4" transform="rotate(270, 66.0, 21.5)" points="46.00,19.00 51.00,19.00 48.50,23.33"/>
<rect fill="rgb(100, 185, 165)" height="20" opacity="0.8" stroke="rgb(25, 235, 165)" stroke-opacity="0.8" stroke-width="4" transform="rotate(270, 122.0, 130.0)" width="40" x="102" y="120"/>
<rect fill="rgb(100, 185, 165)" height="20" opacity="0.8" stroke="rgb(25, 185, 220)" stroke-opacity="0.8" stroke-width="4" transform="rotate(90, 67.0, 114.0)" width="20" x="57" y="104"/>
<circle fill="rgb(75, 210, 110)" opacity="0.6" stroke="rgb(0, 10, 0)" stroke-opacity="0.6" stroke-width="4" r="20.00" cx="52.00" cy="64.00"/>
<rect fill="rgb(175, 160, 110)" height="20" opacity="0.6" stroke="rgb(0, 10, 0)" stroke-opacity="0.8" stroke-width="6" transform="rotate(270, 41.0, 100.0)" width="40" x="21" y="90"/>
<polygon fill="rgb(125, 160, 220)" opacity="0.6" stroke="rgb(125, 235, 55)" stroke-opacity="0.8" stroke-width="4" transform="rotate(0, 125.0, 42.5)" points="120.00,40.00 125.00,40.00 122.50,44.33"/>
<rect fill="rgb(150, 85, 55)" height="5" opacity="0.8" stroke="rgb(200, 35, 165)" stroke-opacity="0.6" stroke-width="4" transform="rotate(90, 23.0, 81.5)" width="20" x="13" y="79"/>
<line fill="rgb(0, 10, 0)" opacity="0.8" stroke="rgb(200, 110, 110)" stroke-opacity="0.8" stroke-width="6" x1="22" x2="99" y1="34" y2="34"/>
<rect fill="rgb(150, 85, 55)" height="5" opacity="0.6" stroke="rgb(225, 110, 165)" stroke-opacity="0.8" stroke-width="4" transform="rotate(180, 128.0, 68.5)" width="20" x="118" y="66"/>
<rect fill="rgb(225, 85, 165)" height="20" opacity="0.8" stroke="rgb(100, 185, 55)" stroke-opacity="0.8" stroke-width="6" transform="rotate(180, 94.0, 78.0)" width="10" x="89" y="68"/>
<line fill="rgb(225, 110, 55)" opacity="0.8" stroke="rgb(200, 160, 220)" stroke-opacity="0.6" stroke-width="6" x1="20" x2="95" y1="46" y2="46"/>
<rect fill="rgb(150, 35, 165)" height="10" opacity="0.6" stroke="rgb(175, 210, 220)" stroke-opacity="0.6" stroke-width="6" transform="rotate(270, 0.0, 28.0)" width="20" x="-10" y="23"/>
<polygon fill="rgb(150, 85, 55)" opacity="0.8" stroke="rgb(150, 35, 165)" stroke-opacity="0.6" stroke-width="6" transform="rotate(0, 133.0, 115.0)" points="113.00,110.00 123.00,110.00 118.00,118.66"/>
<rect fill="rgb(25, 185, 220)" height="20" opacity="0.8" stroke="rgb(250, 110, 110)" stroke-opacity="0.6" stroke-width="6" transform="rotate(180, 119.0, 83.0)" width="40" x="99" y="73"/>
<circle fill="rgb(200, 160, 220)" opacity="0.6" stroke="rgb(25, 35, 110)" stroke-opacity="0.8" stroke-width="6" r="10.00" cx="90.00" cy="52.00"/>
<rect fill="rgb(0, 60, 0)" height="5" opacity="0.6" stroke="rgb(200, 85, 0)" stroke-opacity="0.6" stroke-width="4" transform="rotate(0, 128.0, 77.5)" width="40" x="108" y="75"/>
<circle fill="rgb(100, 185, 165)" opacity="0.8" stroke="rgb(150, 85, 165)" stroke-opacity="0.6" stroke-width="6" r="5.00" cx="100.00" cy="21.00"/>
<circle fill="rgb(100, 185, 110)" opacity="0.6" stroke="rgb(100, 185, 110)" stroke-opacity="0.6" stroke-width="6" r="5.00" cx="89.00" cy="51.00"/>
<circle fill="rgb(25, 35, 110)" opacity="0.8" stroke="rgb(200, 160, 220)" stroke-opacity="0.8" stroke-width="6" r="10.00" cx="8.00" cy="48.00"/>
<line fill="rgb(250, 210, 55)" opacity="0.8" stroke="rgb(250, 135, 55)" stroke-opacity="0.6" stroke-width="4" x1="20" x2="100" y1="58" y2="58"/>
<rect fill="rgb(250, 210, 55)" height="5" opacity="0.8" stroke="rgb(175, 160, 110)" stroke-opacity="0.6" stroke-width="4" transform="rotate(270, 89.0, 5.5)" width="20" x="79" y="3"/>
<circle fill="rgb(0, 10, 0)" opacity="0.8" stroke="rgb(100, 110, 165)" stroke-opacity="0.8" stroke-width="6" r="10.00" cx="129.00" cy="52.00"/>
<rect fill="rgb(100, 185, 55)" height="10" opacity="0.8" stroke="rgb(200, 160, 220)" stroke-opacity="0.6" stroke-width="4" transform="rotate(270, 85.0, 107.0)" width="40" x="65" y="102"/>
<rect fill="rgb(25, 185, 220)" height="5" opacity="0.8" stroke="rgb(125, 135, 220)" stroke-opacity="0.6" stroke-width="6" transform="rotate(270, 92.0, 39.5)" width="20" x="82" y="37"/>
<line fill="rgb(75, 210, 110)" opacity="0.8" stroke="rgb(0, 210, 220)" stroke-opacity="0.6" stroke-width="4" x1="20" x2="97" y1="70" y2="70"/>
</svg>